<svg width="207" height="160" viewBox="0 0 207 160" fill="none" xmlns="http://www.w3.org/2000/svg">
<path d="M126.824 160C171.104 160 207 124.183 207 80C207 35.8172 171.104 0 126.824 0C82.544 0 46.6479 35.8172 46.6479 80C46.6479 124.183 82.544 160 126.824 160Z" fill="#6353F2"/>
<path d="M125.952 43.4743L126.319 115.039C126.328 116.843 124.531 117.181 122.344 117.181C119.429 117.181 118.974 116.001 118.7 115.727C118.099 115.128 117.154 113.567 117.151 113.041L117.016 86.5998L116.876 59.2646C116.873 58.773 116.781 58.3075 116.605 57.8766C115.11 54.148 107.793 52.6078 103.342 55.6058L56.4046 87.2185C54.7545 88.3213 29.0054 105.535 6.19224 120.861C5.55905 121.283 4.70674 121.523 3.8083 121.527C0.792112 121.543 -0.728406 119.122 1.39492 117.692L103.338 47.4942L112.63 41.0028C114.235 39.9216 116.216 39.4285 118.16 39.4186C121.683 39.4006 125.086 40.9607 125.946 43.4444L125.952 43.4743Z" fill="black"/>
<path d="M126.319 115.039L125.952 43.4743L125.946 43.4444C125.086 40.9607 121.683 39.4006 118.16 39.4186C116.216 39.4285 114.235 39.9216 112.63 41.0028L103.338 47.4942L1.39492 117.692C-0.728406 119.122 0.792112 121.543 3.8083 121.527C4.70674 121.523 5.55905 121.283 6.19224 120.861C29.0054 105.535 54.7545 88.3213 56.4046 87.2185L103.342 55.6058C107.793 52.6078 115.11 54.148 116.605 57.8766C116.781 58.3075 116.873 58.773 116.876 59.2646L117.016 86.5998L117.151 113.041C117.154 113.567 118.099 115.128 118.7 115.727C118.974 116.001 119.429 117.181 122.344 117.181C124.531 117.181 126.328 116.843 126.319 115.039Z" fill="black"/>
<path d="M125.952 43.4743L126.319 115.039C126.328 116.843 124.531 117.181 122.344 117.181C119.429 117.181 118.974 116.001 118.7 115.727C118.099 115.128 117.154 113.567 117.151 113.041L117.016 86.5998L116.876 59.2646C116.873 58.773 116.781 58.3075 116.605 57.8766C115.11 54.148 107.793 52.6078 103.342 55.6058L56.4046 87.2185C54.7545 88.3213 29.0054 105.535 6.19224 120.861C5.55905 121.283 4.70674 121.523 3.8083 121.527C0.792112 121.543 -0.728406 119.122 1.39492 117.692L103.338 47.4942L112.63 41.0028C114.235 39.9216 116.216 39.4285 118.16 39.4186C121.683 39.4006 125.086 40.9607 125.946 43.4444L125.952 43.4743Z" fill="black"/>
<path d="M126.319 115.039L125.952 43.4743L125.946 43.4444C125.086 40.9607 121.683 39.4006 118.16 39.4186C116.216 39.4285 114.235 39.9216 112.63 41.0028L103.338 47.4942L1.39492 117.692C-0.728406 119.122 0.792112 121.543 3.8083 121.527C4.70674 121.523 5.55905 121.283 6.19224 120.861C29.0054 105.535 54.7545 88.3213 56.4046 87.2185L103.342 55.6058C107.793 52.6078 115.11 54.148 116.605 57.8766C116.781 58.3075 116.873 58.773 116.876 59.2646L117.016 86.5998L117.151 113.041C117.154 113.567 118.099 115.128 118.7 115.727C118.974 116.001 119.429 117.181 122.344 117.181C124.531 117.181 126.328 116.843 126.319 115.039Z" fill="black"/>
<path d="M125.952 43.4743L126.319 115.039C126.328 116.843 124.531 117.181 122.344 117.181C119.429 117.181 118.974 116.001 118.7 115.727C118.099 115.128 117.154 113.567 117.151 113.041L117.016 86.5998L116.876 59.2646C116.873 58.773 116.781 58.3075 116.605 57.8766C115.11 54.148 107.793 52.6078 103.342 55.6058L56.4046 87.2185C54.7545 88.3213 29.0054 105.535 6.19224 120.861C5.55905 121.283 4.70674 121.523 3.8083 121.527C0.792112 121.543 -0.728406 119.122 1.39492 117.692L103.338 47.4942L112.63 41.0028C114.235 39.9216 116.216 39.4285 118.16 39.4186C121.683 39.4006 125.086 40.9607 125.946 43.4444L125.952 43.4743Z" fill="black"/>
<path d="M126.319 115.039L125.952 43.4743L125.946 43.4444C125.086 40.9607 121.683 39.4006 118.16 39.4186C116.216 39.4285 114.235 39.9216 112.63 41.0028L103.338 47.4942L1.39492 117.692C-0.728406 119.122 0.792112 121.543 3.8083 121.527C4.70674 121.523 5.55905 121.283 6.19224 120.861C29.0054 105.535 54.7545 88.3213 56.4046 87.2185L103.342 55.6058C107.793 52.6078 115.11 54.148 116.605 57.8766C116.781 58.3075 116.873 58.773 116.876 59.2646L117.016 86.5998L117.151 113.041C117.154 113.567 118.099 115.128 118.7 115.727C118.974 116.001 119.429 117.181 122.344 117.181C124.531 117.181 126.328 116.843 126.319 115.039Z" fill="black"/>
<path d="M125.952 43.4743L126.319 115.039C126.328 116.843 124.531 117.181 122.344 117.181C119.429 117.181 118.974 116.001 118.7 115.727C118.099 115.128 117.154 113.567 117.151 113.041L117.016 86.5998L116.876 59.2646C116.873 58.773 116.781 58.3075 116.605 57.8766C115.11 54.148 107.793 52.6078 103.342 55.6058L56.4046 87.2185C54.7545 88.3213 29.0054 105.535 6.19224 120.861C5.55905 121.283 4.70674 121.523 3.8083 121.527C0.792112 121.543 -0.728406 119.122 1.39492 117.692L103.338 47.4942L112.63 41.0028C114.235 39.9216 116.216 39.4285 118.16 39.4186C121.683 39.4006 125.086 40.9607 125.946 43.4444L125.952 43.4743Z" fill="black"/>
<path d="M126.319 115.039L125.952 43.4743L125.946 43.4444C125.086 40.9607 121.683 39.4006 118.16 39.4186C116.216 39.4285 114.235 39.9216 112.63 41.0028L103.338 47.4942L1.39492 117.692C-0.728406 119.122 0.792112 121.543 3.8083 121.527C4.70674 121.523 5.55905 121.283 6.19224 120.861C29.0054 105.535 54.7545 88.3213 56.4046 87.2185L103.342 55.6058C107.793 52.6078 115.11 54.148 116.605 57.8766C116.781 58.3075 116.873 58.773 116.876 59.2646L117.016 86.5998L117.151 113.041C117.154 113.567 118.099 115.128 118.7 115.727C118.974 116.001 119.429 117.181 122.344 117.181C124.531 117.181 126.328 116.843 126.319 115.039Z" fill="black"/>
<path d="M131.13 42.5941C131.13 42.5941 139.393 63.7857 144.688 77.3643C149.984 90.943 158.247 112.135 158.247 112.135C158.695 113.191 158.993 113.902 158.247 112.135C158.534 112.811 159.064 113.325 159.73 113.567C161.967 114.38 166.445 110.865 165.489 108.578L156.15 83.4516L145.158 57.1352L143.355 52.635L140.241 45.169C139.518 43.4398 138.26 42.3225 136.818 41.7987C134.205 40.8497 131.13 42.5941 131.13 42.5941Z" fill="#FCF9E8"/>
<path d="M158.247 112.135C158.247 112.135 149.984 90.943 144.688 77.3643C139.393 63.7857 131.13 42.5941 131.13 42.5941C131.13 42.5941 134.205 40.8497 136.818 41.7987C138.26 42.3225 139.518 43.4398 140.241 45.169L143.355 52.635L145.158 57.1352L156.15 83.4516L165.489 108.578C166.445 110.865 161.967 114.38 159.73 113.567C159.064 113.325 158.534 112.811 158.247 112.135C158.695 113.191 158.993 113.902 158.247 112.135Z" fill="#FCF9E8"/>
<path d="M131.13 42.5941C131.13 42.5941 139.393 63.7857 144.688 77.3643C149.984 90.943 158.247 112.135 158.247 112.135C158.695 113.191 158.993 113.902 158.247 112.135C158.534 112.811 159.064 113.325 159.73 113.567C161.967 114.38 166.445 110.865 165.489 108.578L156.15 83.4516L145.158 57.1352L143.355 52.635L140.241 45.169C139.518 43.4398 138.26 42.3225 136.818 41.7987C134.205 40.8497 131.13 42.5941 131.13 42.5941Z" fill="#FCF9E8"/>
<path d="M158.247 112.135C158.247 112.135 149.984 90.943 144.688 77.3643C139.393 63.7857 131.13 42.5941 131.13 42.5941C131.13 42.5941 134.205 40.8497 136.818 41.7987C138.26 42.3225 139.518 43.4398 140.241 45.169L143.355 52.635L145.158 57.1352L156.15 83.4516L165.489 108.578C166.445 110.865 161.967 114.38 159.73 113.567C159.064 113.325 158.534 112.811 158.247 112.135C158.695 113.191 158.993 113.902 158.247 112.135Z" fill="#FCF9E8"/>
<path d="M131.13 42.5941C131.13 42.5941 139.393 63.7857 144.688 77.3643C149.984 90.943 158.247 112.135 158.247 112.135C158.695 113.191 158.993 113.902 158.247 112.135C158.534 112.811 159.064 113.325 159.73 113.567C161.967 114.38 166.445 110.865 165.489 108.578L156.15 83.4516L145.158 57.1352L143.355 52.635L140.241 45.169C139.518 43.4398 138.26 42.3225 136.818 41.7987C134.205 40.8497 131.13 42.5941 131.13 42.5941Z" fill="#FCF9E8"/>
<path d="M158.247 112.135C158.247 112.135 149.984 90.943 144.688 77.3643C139.393 63.7857 131.13 42.5941 131.13 42.5941C131.13 42.5941 134.205 40.8497 136.818 41.7987C138.26 42.3225 139.518 43.4398 140.241 45.169L143.355 52.635L145.158 57.1352L156.15 83.4516L165.489 108.578C166.445 110.865 161.967 114.38 159.73 113.567C159.064 113.325 158.534 112.811 158.247 112.135C158.695 113.191 158.993 113.902 158.247 112.135Z" fill="#FCF9E8"/>
<path d="M131.13 42.5941C131.13 42.5941 139.393 63.7857 144.688 77.3643C149.984 90.943 158.247 112.135 158.247 112.135C158.695 113.191 158.993 113.902 158.247 112.135C158.534 112.811 159.064 113.325 159.73 113.567C161.967 114.38 166.445 110.865 165.489 108.578L156.15 83.4516L145.158 57.1352L143.355 52.635L140.241 45.169C139.518 43.4398 138.26 42.3225 136.818 41.7987C134.205 40.8497 131.13 42.5941 131.13 42.5941Z" fill="#FCF9E8"/>
<path d="M158.247 112.135C158.247 112.135 149.984 90.943 144.688 77.3643C139.393 63.7857 131.13 42.5941 131.13 42.5941C131.13 42.5941 134.205 40.8497 136.818 41.7987C138.26 42.3225 139.518 43.4398 140.241 45.169L143.355 52.635L145.158 57.1352L156.15 83.4516L165.489 108.578C166.445 110.865 161.967 114.38 159.73 113.567C159.064 113.325 158.534 112.811 158.247 112.135C158.695 113.191 158.993 113.902 158.247 112.135Z" fill="#FCF9E8"/>
<path d="M144.249 42.5941C144.249 42.5941 152.513 63.7857 157.808 77.3643C163.103 90.943 171.367 112.135 171.367 112.135C171.815 113.191 172.113 113.902 171.367 112.135C171.654 112.811 172.183 113.325 172.85 113.567C175.087 114.38 179.564 110.865 178.609 108.578L169.27 83.4516L158.278 57.1352L156.475 52.635L153.36 45.169C152.638 43.4398 151.38 42.3225 149.938 41.7987C147.325 40.8497 144.249 42.5941 144.249 42.5941Z" fill="black"/>
<path d="M171.367 112.135C171.367 112.135 163.103 90.943 157.808 77.3643C152.513 63.7857 144.249 42.5941 144.249 42.5941C144.249 42.5941 147.325 40.8497 149.938 41.7987C151.38 42.3225 152.638 43.4398 153.36 45.169L156.475 52.635L158.278 57.1352L169.27 83.4516L178.609 108.578C179.564 110.865 175.087 114.38 172.85 113.567C172.183 113.325 171.654 112.811 171.367 112.135C171.815 113.191 172.113 113.902 171.367 112.135Z" fill="black"/>
<path d="M144.249 42.5941C144.249 42.5941 152.513 63.7857 157.808 77.3643C163.103 90.943 171.367 112.135 171.367 112.135C171.815 113.191 172.113 113.902 171.367 112.135C171.654 112.811 172.183 113.325 172.85 113.567C175.087 114.38 179.564 110.865 178.609 108.578L169.27 83.4516L158.278 57.1352L156.475 52.635L153.36 45.169C152.638 43.4398 151.38 42.3225 149.938 41.7987C147.325 40.8497 144.249 42.5941 144.249 42.5941Z" fill="black"/>
<path d="M171.367 112.135C171.367 112.135 163.103 90.943 157.808 77.3643C152.513 63.7857 144.249 42.5941 144.249 42.5941C144.249 42.5941 147.325 40.8497 149.938 41.7987C151.38 42.3225 152.638 43.4398 153.36 45.169L156.475 52.635L158.278 57.1352L169.27 83.4516L178.609 108.578C179.564 110.865 175.087 114.38 172.85 113.567C172.183 113.325 171.654 112.811 171.367 112.135C171.815 113.191 172.113 113.902 171.367 112.135Z" fill="black"/>
<path d="M144.249 42.5941C144.249 42.5941 152.513 63.7857 157.808 77.3643C163.103 90.943 171.367 112.135 171.367 112.135C171.815 113.191 172.113 113.902 171.367 112.135C171.654 112.811 172.183 113.325 172.85 113.567C175.087 114.38 179.564 110.865 178.609 108.578L169.27 83.4516L158.278 57.1352L156.475 52.635L153.36 45.169C152.638 43.4398 151.38 42.3225 149.938 41.7987C147.325 40.8497 144.249 42.5941 144.249 42.5941Z" fill="black"/>
<path d="M171.367 112.135C171.367 112.135 163.103 90.943 157.808 77.3643C152.513 63.7857 144.249 42.5941 144.249 42.5941C144.249 42.5941 147.325 40.8497 149.938 41.7987C151.38 42.3225 152.638 43.4398 153.36 45.169L156.475 52.635L158.278 57.1352L169.27 83.4516L178.609 108.578C179.564 110.865 175.087 114.38 172.85 113.567C172.183 113.325 171.654 112.811 171.367 112.135C171.815 113.191 172.113 113.902 171.367 112.135Z" fill="black"/>
<path d="M144.249 42.5941C144.249 42.5941 152.513 63.7857 157.808 77.3643C163.103 90.943 171.367 112.135 171.367 112.135C171.815 113.191 172.113 113.902 171.367 112.135C171.654 112.811 172.183 113.325 172.85 113.567C175.087 114.38 179.564 110.865 178.609 108.578L169.27 83.4516L158.278 57.1352L156.475 52.635L153.36 45.169C152.638 43.4398 151.38 42.3225 149.938 41.7987C147.325 40.8497 144.249 42.5941 144.249 42.5941Z" fill="black"/>
<path d="M171.367 112.135C171.367 112.135 163.103 90.943 157.808 77.3643C152.513 63.7857 144.249 42.5941 144.249 42.5941C144.249 42.5941 147.325 40.8497 149.938 41.7987C151.38 42.3225 152.638 43.4398 153.36 45.169L156.475 52.635L158.278 57.1352L169.27 83.4516L178.609 108.578C179.564 110.865 175.087 114.38 172.85 113.567C172.183 113.325 171.654 112.811 171.367 112.135C171.815 113.191 172.113 113.902 171.367 112.135Z" fill="black"/>
</svg>
