<svg width="207" height="160" viewBox="0 0 207 160" fill="none" xmlns="http://www.w3.org/2000/svg">
<path d="M126.824 160C171.104 160 207 124.183 207 80C207 35.8172 171.104 0 126.824 0C82.544 0 46.6479 35.8172 46.6479 80C46.6479 124.183 82.544 160 126.824 160Z" fill="url(#paint0_linear_215_16)"/>
<path d="M125.952 43.4743L126.319 115.039C126.328 116.843 124.531 117.181 122.344 117.181C119.429 117.181 118.974 116.001 118.7 115.727C118.099 115.128 117.154 113.567 117.151 113.041L117.016 86.5998L116.876 59.2646C116.873 58.773 116.781 58.3075 116.605 57.8766C115.11 54.148 107.793 52.6078 103.342 55.6058L56.4046 87.2185C54.7545 88.3213 29.0054 105.535 6.19224 120.861C5.55905 121.283 4.70674 121.523 3.8083 121.527C0.792112 121.543 -0.728406 119.122 1.39492 117.692L103.338 47.4942L112.63 41.0028C114.235 39.9216 116.216 39.4285 118.16 39.4186C121.683 39.4006 125.086 40.9607 125.946 43.4444L125.952 43.4743Z" fill="black"/>
<path d="M126.319 115.039L125.952 43.4743L125.946 43.4444C125.086 40.9607 121.683 39.4006 118.16 39.4186C116.216 39.4285 114.235 39.9216 112.63 41.0028L103.338 47.4942L1.39492 117.692C-0.728406 119.122 0.792112 121.543 3.8083 121.527C4.70674 121.523 5.55905 121.283 6.19224 120.861C29.0054 105.535 54.7545 88.3213 56.4046 87.2185L103.342 55.6058C107.793 52.6078 115.11 54.148 116.605 57.8766C116.781 58.3075 116.873 58.773 116.876 59.2646L117.016 86.5998L117.151 113.041C117.154 113.567 118.099 115.128 118.7 115.727C118.974 116.001 119.429 117.181 122.344 117.181C124.531 117.181 126.328 116.843 126.319 115.039Z" fill="black"/>
<path d="M125.952 43.4743L126.319 115.039C126.328 116.843 124.531 117.181 122.344 117.181C119.429 117.181 118.974 116.001 118.7 115.727C118.099 115.128 117.154 113.567 117.151 113.041L117.016 86.5998L116.876 59.2646C116.873 58.773 116.781 58.3075 116.605 57.8766C115.11 54.148 107.793 52.6078 103.342 55.6058L56.4046 87.2185C54.7545 88.3213 29.0054 105.535 6.19224 120.861C5.55905 121.283 4.70674 121.523 3.8083 121.527C0.792112 121.543 -0.728406 119.122 1.39492 117.692L103.338 47.4942L112.63 41.0028C114.235 39.9216 116.216 39.4285 118.16 39.4186C121.683 39.4006 125.086 40.9607 125.946 43.4444L125.952 43.4743Z" fill="black"/>
<path d="M126.319 115.039L125.952 43.4743L125.946 43.4444C125.086 40.9607 121.683 39.4006 118.16 39.4186C116.216 39.4285 114.235 39.9216 112.63 41.0028L103.338 47.4942L1.39492 117.692C-0.728406 119.122 0.792112 121.543 3.8083 121.527C4.70674 121.523 5.55905 121.283 6.19224 120.861C29.0054 105.535 54.7545 88.3213 56.4046 87.2185L103.342 55.6058C107.793 52.6078 115.11 54.148 116.605 57.8766C116.781 58.3075 116.873 58.773 116.876 59.2646L117.016 86.5998L117.151 113.041C117.154 113.567 118.099 115.128 118.7 115.727C118.974 116.001 119.429 117.181 122.344 117.181C124.531 117.181 126.328 116.843 126.319 115.039Z" fill="black"/>
<path d="M125.952 43.4743L126.319 115.039C126.328 116.843 124.531 117.181 122.344 117.181C119.429 117.181 118.974 116.001 118.7 115.727C118.099 115.128 117.154 113.567 117.151 113.041L117.016 86.5998L116.876 59.2646C116.873 58.773 116.781 58.3075 116.605 57.8766C115.11 54.148 107.793 52.6078 103.342 55.6058L56.4046 87.2185C54.7545 88.3213 29.0054 105.535 6.19224 120.861C5.55905 121.283 4.70674 121.523 3.8083 121.527C0.792112 121.543 -0.728406 119.122 1.39492 117.692L103.338 47.4942L112.63 41.0028C114.235 39.9216 116.216 39.4285 118.16 39.4186C121.683 39.4006 125.086 40.9607 125.946 43.4444L125.952 43.4743Z" fill="black"/>
<path d="M126.319 115.039L125.952 43.4743L125.946 43.4444C125.086 40.9607 121.683 39.4006 118.16 39.4186C116.216 39.4285 114.235 39.9216 112.63 41.0028L103.338 47.4942L1.39492 117.692C-0.728406 119.122 0.792112 121.543 3.8083 121.527C4.70674 121.523 5.55905 121.283 6.19224 120.861C29.0054 105.535 54.7545 88.3213 56.4046 87.2185L103.342 55.6058C107.793 52.6078 115.11 54.148 116.605 57.8766C116.781 58.3075 116.873 58.773 116.876 59.2646L117.016 86.5998L117.151 113.041C117.154 113.567 118.099 115.128 118.7 115.727C118.974 116.001 119.429 117.181 122.344 117.181C124.531 117.181 126.328 116.843 126.319 115.039Z" fill="black"/>
<path d="M125.952 43.4743L126.319 115.039C126.328 116.843 124.531 117.181 122.344 117.181C119.429 117.181 118.974 116.001 118.7 115.727C118.099 115.128 117.154 113.567 117.151 113.041L117.016 86.5998L116.876 59.2646C116.873 58.773 116.781 58.3075 116.605 57.8766C115.11 54.148 107.793 52.6078 103.342 55.6058L56.4046 87.2185C54.7545 88.3213 29.0054 105.535 6.19224 120.861C5.55905 121.283 4.70674 121.523 3.8083 121.527C0.792112 121.543 -0.728406 119.122 1.39492 117.692L103.338 47.4942L112.63 41.0028C114.235 39.9216 116.216 39.4285 118.16 39.4186C121.683 39.4006 125.086 40.9607 125.946 43.4444L125.952 43.4743Z" fill="black"/>
<path d="M126.319 115.039L125.952 43.4743L125.946 43.4444C125.086 40.9607 121.683 39.4006 118.16 39.4186C116.216 39.4285 114.235 39.9216 112.63 41.0028L103.338 47.4942L1.39492 117.692C-0.728406 119.122 0.792112 121.543 3.8083 121.527C4.70674 121.523 5.55905 121.283 6.19224 120.861C29.0054 105.535 54.7545 88.3213 56.4046 87.2185L103.342 55.6058C107.793 52.6078 115.11 54.148 116.605 57.8766C116.781 58.3075 116.873 58.773 116.876 59.2646L117.016 86.5998L117.151 113.041C117.154 113.567 118.099 115.128 118.7 115.727C118.974 116.001 119.429 117.181 122.344 117.181C124.531 117.181 126.328 116.843 126.319 115.039Z" fill="black"/>
<path d="M136.818 41.7985C138.26 42.3223 139.518 43.44 140.24 45.1692L143.355 52.6349L145.158 57.135L156.15 83.4514L165.489 108.578C166.444 110.865 161.968 114.379 159.73 113.567C159.064 113.325 158.535 112.811 158.248 112.134L144.689 77.3646C139.393 63.786 131.13 42.594 131.13 42.594C131.145 42.5855 134.211 40.8519 136.818 41.7985Z" fill="#FCF9E8"/>
<path d="M136.818 41.7985C138.26 42.3223 139.518 43.44 140.24 45.1692L143.355 52.6349L145.158 57.135L156.15 83.4514L165.489 108.578C166.444 110.865 161.968 114.379 159.73 113.567C159.064 113.325 158.535 112.811 158.248 112.134L144.689 77.3646C139.393 63.786 131.13 42.594 131.13 42.594C131.145 42.5855 134.211 40.8519 136.818 41.7985Z" stroke="black"/>
<path d="M136.818 41.7985C138.26 42.3223 139.518 43.44 140.24 45.1692L143.355 52.6349L145.158 57.135L156.15 83.4514L165.489 108.578C166.444 110.865 161.968 114.379 159.73 113.567C159.064 113.325 158.535 112.811 158.248 112.134L144.689 77.3646C139.393 63.786 131.13 42.594 131.13 42.594C131.145 42.5855 134.211 40.8519 136.818 41.7985Z" fill="#FCF9E8"/>
<path d="M136.818 41.7985C138.26 42.3223 139.518 43.44 140.24 45.1692L143.355 52.6349L145.158 57.135L156.15 83.4514L165.489 108.578C166.444 110.865 161.968 114.379 159.73 113.567C159.064 113.325 158.535 112.811 158.248 112.134L144.689 77.3646C139.393 63.786 131.13 42.594 131.13 42.594C131.145 42.5855 134.211 40.8519 136.818 41.7985Z" stroke="black"/>
<path d="M136.818 41.7985C138.26 42.3223 139.518 43.44 140.24 45.1692L143.355 52.6349L145.158 57.135L156.15 83.4514L165.489 108.578C166.444 110.865 161.968 114.379 159.73 113.567C159.064 113.325 158.535 112.811 158.248 112.134L144.689 77.3646C139.393 63.786 131.13 42.594 131.13 42.594C131.145 42.5855 134.211 40.8519 136.818 41.7985Z" fill="#FCF9E8"/>
<path d="M136.818 41.7985C138.26 42.3223 139.518 43.44 140.24 45.1692L143.355 52.6349L145.158 57.135L156.15 83.4514L165.489 108.578C166.444 110.865 161.968 114.379 159.73 113.567C159.064 113.325 158.535 112.811 158.248 112.134L144.689 77.3646C139.393 63.786 131.13 42.594 131.13 42.594C131.145 42.5855 134.211 40.8519 136.818 41.7985Z" stroke="black"/>
<path d="M136.818 41.7985C138.26 42.3223 139.518 43.44 140.24 45.1692L143.355 52.6349L145.158 57.135L156.15 83.4514L165.489 108.578C166.444 110.865 161.968 114.379 159.73 113.567C159.064 113.325 158.535 112.811 158.248 112.134L144.689 77.3646C139.393 63.786 131.13 42.594 131.13 42.594C131.145 42.5855 134.211 40.8519 136.818 41.7985Z" fill="#FCF9E8"/>
<path d="M136.818 41.7985C138.26 42.3223 139.518 43.44 140.24 45.1692L143.355 52.6349L145.158 57.135L156.15 83.4514L165.489 108.578C166.444 110.865 161.968 114.379 159.73 113.567C159.064 113.325 158.535 112.811 158.248 112.134L144.689 77.3646C139.393 63.786 131.13 42.594 131.13 42.594C131.145 42.5855 134.211 40.8519 136.818 41.7985Z" stroke="black"/>
<path d="M149.938 41.7985C151.38 42.3223 152.638 43.44 153.36 45.1692L156.475 52.6349L158.278 57.135L169.27 83.4514L178.609 108.578C179.564 110.865 175.087 114.379 172.85 113.567C172.184 113.325 171.654 112.811 171.368 112.134L157.808 77.3646C152.513 63.786 144.25 42.594 144.25 42.594C144.264 42.5855 147.331 40.8519 149.938 41.7985Z" fill="black"/>
<path d="M149.938 41.7985C151.38 42.3223 152.638 43.44 153.36 45.1692L156.475 52.6349L158.278 57.135L169.27 83.4514L178.609 108.578C179.564 110.865 175.087 114.379 172.85 113.567C172.184 113.325 171.654 112.811 171.368 112.134L157.808 77.3646C152.513 63.786 144.25 42.594 144.25 42.594C144.264 42.5855 147.331 40.8519 149.938 41.7985Z" stroke="black"/>
<path d="M149.938 41.7985C151.38 42.3223 152.638 43.44 153.36 45.1692L156.475 52.6349L158.278 57.135L169.27 83.4514L178.609 108.578C179.564 110.865 175.087 114.379 172.85 113.567C172.184 113.325 171.654 112.811 171.368 112.134L157.808 77.3646C152.513 63.786 144.25 42.594 144.25 42.594C144.264 42.5855 147.331 40.8519 149.938 41.7985Z" fill="black"/>
<path d="M149.938 41.7985C151.38 42.3223 152.638 43.44 153.36 45.1692L156.475 52.6349L158.278 57.135L169.27 83.4514L178.609 108.578C179.564 110.865 175.087 114.379 172.85 113.567C172.184 113.325 171.654 112.811 171.368 112.134L157.808 77.3646C152.513 63.786 144.25 42.594 144.25 42.594C144.264 42.5855 147.331 40.8519 149.938 41.7985Z" stroke="black"/>
<path d="M149.938 41.7985C151.38 42.3223 152.638 43.44 153.36 45.1692L156.475 52.6349L158.278 57.135L169.27 83.4514L178.609 108.578C179.564 110.865 175.087 114.379 172.85 113.567C172.184 113.325 171.654 112.811 171.368 112.134L157.808 77.3646C152.513 63.786 144.25 42.594 144.25 42.594C144.264 42.5855 147.331 40.8519 149.938 41.7985Z" fill="black"/>
<path d="M149.938 41.7985C151.38 42.3223 152.638 43.44 153.36 45.1692L156.475 52.6349L158.278 57.135L169.27 83.4514L178.609 108.578C179.564 110.865 175.087 114.379 172.85 113.567C172.184 113.325 171.654 112.811 171.368 112.134L157.808 77.3646C152.513 63.786 144.25 42.594 144.25 42.594C144.264 42.5855 147.331 40.8519 149.938 41.7985Z" stroke="black"/>
<path d="M149.938 41.7985C151.38 42.3223 152.638 43.44 153.36 45.1692L156.475 52.6349L158.278 57.135L169.27 83.4514L178.609 108.578C179.564 110.865 175.087 114.379 172.85 113.567C172.184 113.325 171.654 112.811 171.368 112.134L157.808 77.3646C152.513 63.786 144.25 42.594 144.25 42.594C144.264 42.5855 147.331 40.8519 149.938 41.7985Z" fill="black"/>
<path d="M149.938 41.7985C151.38 42.3223 152.638 43.44 153.36 45.1692L156.475 52.6349L158.278 57.135L169.27 83.4514L178.609 108.578C179.564 110.865 175.087 114.379 172.85 113.567C172.184 113.325 171.654 112.811 171.368 112.134L157.808 77.3646C152.513 63.786 144.25 42.594 144.25 42.594C144.264 42.5855 147.331 40.8519 149.938 41.7985Z" stroke="black"/>
<defs>
<linearGradient id="paint0_linear_215_16" x1="71.2195" y1="27.0086" x2="181.781" y2="136.491" gradientUnits="userSpaceOnUse">
<stop stop-color="#6353F2"/>
<stop offset="1" stop-color="#7C3AED"/>
</linearGradient>
</defs>
</svg>
