<?xml version="1.0" encoding="utf-8"?>
<!-- Generator: Adobe Illustrator 27.0.0, SVG Export Plug-In . SVG Version: 6.00 Build 0)  -->
<svg version="1.1" id="Layer_1" xmlns="http://www.w3.org/2000/svg" xmlns:xlink="http://www.w3.org/1999/xlink" x="0px" y="0px"
	 viewBox="0 0 512 512" style="enable-background:new 0 0 512 512;" xml:space="preserve">
<style type="text/css">
	.st0{fill:#050A07;}
	.st1{fill:#2B2B2B;}
	.st2{fill:none;}
	.st3{fill:#0F1111;}
</style>
<g id="XMLID_1_">
	<path id="XMLID_3_" class="st0" d="M312.95,239.87c0,0.98-0.84,1.68-1.68,1.82c-0.84,0.14-1.54-0.84-1.68-1.82
		c0-0.7,0.7-1.4,1.68-0.98C312.25,239.03,312.95,239.45,312.95,239.87"/>
	<path id="XMLID_4_" class="st0" d="M266.38,360.78l-1.54,0.84c-0.84,2.67-2.81,6.73-8.98,9.82c0,0,6.03-0.28,8.84-6.17
		c-0.14,0.7-1.4,7.01-9.54,17.67c0,0,0.28,1.68,1.68,0.28C265.12,374.95,266.66,362.75,266.38,360.78"/>
	<path id="XMLID_5_" class="st0" d="M337.36,370.88c0.7-0.7-1.26,0.56-0.42,0.28c0.56-0.28,1.26-0.28,1.96-0.42
		c2.52-0.14,5.05,1.26,7.01,2.52l1.54-0.84c-3.37-2.1-8.28-3.93-11.64-0.56L337.36,370.88"/>
	<path id="XMLID_6_" class="st0" d="M355.03,383.79c1.26,1.12,2.95,1.68,4.77,1.68l1.54-0.84c-1.68,0-3.37-0.56-4.63-1.68
		L355.03,383.79"/>
	<path id="XMLID_7_" class="st0" d="M403.71,175.76c0-0.7-0.56-0.84-1.12-0.28c-8.98,8.14-24.83,8.42-35.63,4.91
		c-1.26-0.42-2.24,0.7-2.24,0.7C376.92,184.74,396.98,186,403.71,175.76"/>
	<path id="XMLID_8_" class="st0" d="M365.69,177.73c-2.38-0.28-1.82,0.7-1.82,0.7c2.67,0.84,5.33,1.26,7.86,1.26
		c5.33,1.82,11.22-0.14,11.22-0.14c-1.68,0-4.35,0-6.59-0.14c6.45-1.12,15.01-4.35,18.1-8.14
		C391.36,174.92,373.97,178.85,365.69,177.73"/>
	<polyline id="XMLID_9_" class="st0" points="257.12,163.28 256.84,163.14 257.12,163.28 	"/>
	<path id="XMLID_10_" class="st0" d="M273.25,170.57c-3.79-5.33-12.62-6.45-16.13-7.43C265.26,165.66,272.83,170.57,273.25,170.57"
		/>
	<path id="XMLID_11_" class="st0" d="M337.78,193.72c1.82,0.98,3.23-1.4,3.23-2.95c0-1.12-1.54-3.09-3.23-2.81
		c-1.82,0.7-3.23,1.4-3.23,3.93C334.41,193.3,335.82,194.42,337.78,193.72"/>
	<path id="XMLID_12_" class="st0" d="M322.63,128.49c-1.12,0.42-3.09,0-3.09,0c2.95,3.65,5.61,0.98,5.61,0.98
		C326.42,127.79,322.63,128.49,322.63,128.49"/>
	<path id="XMLID_13_" class="st0" d="M299.48,135.08l-1.12,0.84c0,0-1.68-0.42-0.56,1.26c0,0,1.82,2.81,3.09,2.38
		c0,0,1.26-0.28-0.28-1.4C300.75,138.03,301.03,135.64,299.48,135.08"/>
	<path id="XMLID_17_" class="st0" d="M42.22,257.26c-2.24-1.82-14.31-2.38-17.39-2.67c-2.95-0.28-10.1-0.84-10.66-0.84
		c-0.84-0.14-1.68-0.14-2.24-0.84c-0.42-0.56-0.42-0.98-1.26-1.12l-1.26,0.56l0,0l0,0l0,0c-0.7,0.42-0.42,1.54-0.42,2.24
		c0,1.54,0,3.09-0.14,4.63c0,0.98,0.7,1.12,1.4,0.84c0,0,1.96-1.96,3.37-1.96c5.47,0.14,21.32,0.28,23.57,0.84
		c3.93,0.98,4.49,6.59,1.68,8.98v0.14c0,0-1.96,0.56-2.81,0.56c-7.01,0-14.03-0.14-20.9-0.14c-0.84,0-1.54-0.28-2.24-0.84
		c-0.56-0.42-1.12-1.12-1.96-0.84l0,0l-0.14,0.14l-0.7,0.42c-1.26,0.98-0.56,3.51-0.56,4.91c0,0.98-0.42,7.43,0.84,7.86
		c0.7,0.28,1.96-1.4,2.52-2.1c1.68-0.56,12.76-0.56,16.27-0.7c4.35-0.14,9.54,0.14,13.19-2.52c2.52-1.82,2.38-5.19,2.38-8
		C44.61,263.57,45.03,259.65,42.22,257.26L42.22,257.26z M11.08,258.95l0.56-0.42l0,0L11.08,258.95L11.08,258.95z M37.59,276.76
		c1.4-0.28,2.67-0.7,3.51-1.12C40.12,276.2,39,276.48,37.59,276.76"/>
	<polyline id="XMLID_18_" class="st1" points="362.89,36.19 362.75,36.33 362.89,36.33 362.89,36.19 	"/>
	<line id="XMLID_19_" class="st2" x1="12.62" y1="242.39" x2="12.62" y2="242.39"/>
	<path id="XMLID_22_" class="st0" d="M41.94,222.9c-0.56,0-7.29-1.12-10.24-1.68c-5.05-0.84-10.1-1.4-15.15-2.52
		c-0.98-0.14-1.26-0.56-1.68-1.4c-0.28-0.56-1.12-1.96-1.82-1.54l0,0l-0.7,0.42l0.14-0.14v0.14c-0.84,0.7-0.7,1.82-0.98,3.23
		c-0.28,1.54-0.42,3.09-0.7,4.63c-0.14,0.84,0.14,1.82,1.12,1.26v0.14l0.14-0.14l0.56-0.28c0.56-0.42,0.84-0.84,1.54-0.98
		c0.84-0.28,12.91,0.98,12.2,1.4c0.7-0.42-8.84,5.19-11.92,7.01c-1.4,0.84-3.09,1.54-4.21,2.67c-0.84,0.84-1.26,6.03-1.54,7.43
		c-0.42,2.1,0.56,2.1,0.84,2.1h0.14l3.09-2.1c1.12-0.42,2.38-0.28,3.51-0.28c6.17,0.42,23.57,1.54,23.85,2.1l0.56,1.12
		c0.14,1.68,1.4,1.82,1.4,1.82c1.26,0.42,1.26-1.82,1.4-2.67c0.28-2.1,0.7-4.49,0.56-6.59c-0.14-0.98-1.68,0-1.68,0
		c-0.14,0.14-0.56,1.68-1.54,1.82c-0.84,0.28-2.24,0.28-3.37,0c-2.1-0.28-15.15-1.26-15.71-2.52c4.35-2.52,22.86-13.05,22.86-13.05
		l0,0l0.28-0.28C46.43,223.04,42.36,222.9,41.94,222.9 M12.76,224.58l0.28-0.14l1.12-0.56L12.76,224.58"/>
	<polyline id="XMLID_23_" class="st0" points="12.48,242.39 11.64,242.95 12.48,242.39 	"/>
	<path id="XMLID_24_" class="st0" d="M385.47,78.13c-1.4,1.82-3.09,2.67-5.19,3.93l0,0c-0.14,0.14-1.4,1.12,1.4,2.52
		c1.4,0.7,2.81,1.82,4.07,2.81c2.52,2.24,2.95-0.28,3.09-0.84c0.28-1.82,0.14-3.65,1.26-5.33c3.23-4.63,6.45-9.12,9.54-13.61
		c0.42,0,0.14,2.67,0.14,3.65c-0.28,3.23-2.1,19.5-2.67,24.55c-0.14,1.96,1.54,3.23,2.95,3.09l0.98-0.7
		c0.98-1.54,0.98-3.65,1.96-5.19c0.28-0.56,0.84-0.98,1.26-1.54c4.07-4.63,8.14-9.26,12.2-13.89c1.12-1.4,2.24-2.38,4.07-2.67
		l2.1-0.84c0.42-0.42,0.56-0.98-0.14-1.68c-1.54-1.68-3.93-2.67-5.19-4.63c-0.56-0.84-1.68-0.98-1.54-1.12
		c-0.14,0.14-2.1-0.28-1.26,2.24c0.56,1.68-0.28,3.79-1.12,5.33c-1.82,2.52-3.51,4.91-5.33,7.43c-0.7-0.98,0.56-11.92,0.84-15.29
		c0.14-1.96,0.84-5.05-0.84-6.59c-1.12-0.98-5.89-4.63-7.29-4.91l-1.12,0.56c-0.42,0.56-0.28,1.26-0.28,1.96
		c0,0.98-0.14,2.1-0.42,3.23c-0.28,1.26-1.12,2.38-1.96,3.51C395.01,66.07,387.44,75.61,385.47,78.13"/>
	<polyline id="XMLID_25_" class="st1" points="16.41,207.61 16.41,207.61 16.27,207.75 16.41,207.61 	"/>
	<path id="XMLID_28_" class="st0" d="M47.69,213.22c0.28-1.68,0.56-3.37,0.98-5.05c0.14-0.84,0.7-1.54,0.84-2.52
		c0.42-1.68-0.42-1.68-1.26-1.4c-0.14,0-3.09,1.4-6.59,0.42c-3.37-0.84-18.24-3.65-21.04-5.89c-0.84-0.7-2.38-3.23-3.65-2.81l0,0
		c0,0-0.56-0.28-1.54,4.35c-0.56,2.52-1.12,4.91-1.4,7.57c0,0.98,0.7,0.84,1.12,0.7c0.98-0.28,1.12-1.26,2.1-1.26
		c0.98,0,20.62,3.51,24.69,5.33c1.54,0.7,2.52,2.1,3.79,3.23C46.71,216.72,47.55,213.92,47.69,213.22L47.69,213.22z M16.27,207.61
		l0.28-0.14L16.27,207.61"/>
	<path id="XMLID_32_" class="st0" d="M462.62,181.8c-1.54,0.7-2.1,0.56-2.67,0.84c-0.56,0.28-4.49-0.14-3.51,2.1
		c0.7,1.54,1.12,3.09,1.54,4.77c0.28,0.84,1.26,4.91,2.52,4.35c1.26-0.7,1.82-2.24,3.09-3.23c0.84-0.28,1.54-0.7,2.38-0.98
		c0,0,18.38-6.73,21.6-7.57c0.98-0.28,1.54,0.56,2.38,0.42c0,0.14,1.68,0.28,0.56-2.67c-0.56-1.54-1.12-3.23-1.68-4.91
		c-0.28-1.26-0.14-4.49-2.24-3.51l0,0l-1.54,1.54c-0.28,0.28-3.37,1.96-3.93,2.24C477.35,176.18,462.62,181.8,462.62,181.8
		L462.62,181.8L462.62,181.8z M462.76,190.77l0.42-0.28l0,0L462.76,190.77L462.76,190.77z M463.32,190.49L463.32,190.49
		L463.32,190.49"/>
	<path id="XMLID_33_" class="st0" d="M92.58,73.5c1.26,0.14,2.1,0.98,2.95,1.82c4.91,4.63,10.24,9.26,14.17,14.73
		c1.12,1.54,1.82,3.37,2.24,5.19c0.56,2.67,2.67,0.56,2.67,0.42l0,0c2.52-2.52,7.01-5.47,7.29-5.61c0.42-0.28,1.96-1.54,0.42-2.38
		l0,0c-1.68-0.14-3.09-0.7-4.35-1.82c-3.65-3.93-14.03-15.01-15.29-16.69c-1.12-1.4-1.12-3.23-1.82-4.91l-0.98-0.42l0,0
		c0,0-3.93,2.1-8.42,7.01c-0.42,0.42-0.98,0.84-1.12,1.54C90.2,73.5,92.3,73.5,92.58,73.5"/>
	<path id="XMLID_36_" class="st0" d="M408.76,102.82c-0.56,4.77,2.24,9.4,6.59,11.64c6.45,3.37,14.31-1.68,18.8-6.03
		c3.23-3.23,6.17-7.01,7.01-11.64c0.98-5.05-2.38-9.68-6.73-12.06c-6.73-3.79-14.59,1.54-19.22,6.17
		C411.84,94.12,409.32,98.33,408.76,102.82L408.76,102.82z M423.21,94.83c1.96-1.68,12.62-11.08,13.33-4.21
		c0.28,2.38-2.1,4.77-3.37,6.45c-2.24,2.67-4.77,5.19-7.29,7.72c-0.84,0.7-1.68,1.68-2.52,2.52c-0.84,0.84-1.68,1.4-2.38,1.96
		c-0.7,0.42-1.54,0.7-2.24,0.84c-1.96,0.28-3.65-1.54-4.35-3.09c-0.84-1.96,0.7-4.07,1.68-5.47
		C418.02,99.03,420.68,96.93,423.21,94.83"/>
	<path id="XMLID_40_" class="st0" d="M49.24,126.53c2.67-0.14,5.19,2.24,7.15,3.65c4.49,3.23,8.98,6.31,13.47,9.54
		c0.98,0.98,1.68,2.1,2.1,3.51c0.14,0.42,0.14,2.38,1.12,1.82l0,0v-0.14c0.7,0,4.77-6.45,6.45-9.12c1.4-2.24-2.1-1.82-3.23-2.38
		c-1.26-0.56-2.52-1.54-3.79-2.24c-2.1-1.12-6.73-3.23-3.51-5.61c1.96-0.84,5.19-0.42,7.29-0.56c3.51-0.14,7.15-0.42,10.66-1.54
		c1.4-0.42,3.23-1.26,3.65-2.67c0.7-2.1-2.52-1.54-3.51-1.54c-1.4,0-10.66-0.98-13.75-1.54c-1.54-0.28-1.96-0.14-1.82-1.68
		c0.14-2.1-0.84-3.79-2.24-5.19c-3.09-2.81-7.43-3.09-10.94-1.12c0,0-2.95,1.68-8.84,10.94c-0.98,1.4-1.82,2.81-2.67,4.21
		C45.17,127.37,47.55,126.53,49.24,126.53L49.24,126.53z M63.4,125.55h-0.28H63.4L63.4,125.55L63.4,125.55z M54.85,117.69
		c0.7-0.98,1.4-1.96,2.24-2.81c2.52-0.7,5.61,1.96,7.29,3.37c2.24,1.96,0.84,5.05-0.84,7.01c-1.26,0-2.95-1.54-3.79-2.1
		c-1.4-0.98-2.95-1.96-4.35-2.81C54.71,119.37,54.15,118.81,54.85,117.69"/>
	<path id="XMLID_46_" class="st0" d="M468.52,224.16L468.52,224.16L468.52,224.16l12.91-9.26l3.09,1.54
		c2.52,0.98,5.61,0.56,8.14-0.56c3.09-1.4,5.05-4.21,5.33-7.57c0.28-3.09-0.98-6.45-1.82-9.54c-0.7-2.38-1.12-4.63-1.82-6.87
		c-0.42-1.26-0.7-1.82-1.54-1.54h-0.14l0,0l-0.14,0.14l-0.28,0.14l0,0h-0.14l-0.14,0.14l0,0l-0.42,0.7
		c-0.42,0.84-1.12,1.54-1.96,2.1c-0.7,0.28-1.54,0.56-2.38,0.84c-1.12,0.28-16.41,3.93-19.78,4.77c-1.4,0-3.09,0.14-3.93-0.84
		c-0.7-0.7-3.79-0.14-2.67,1.68c1.68,2.95,1.26,6.87,2.24,9.96c0.28,0.7,1.54,0.14,2.52-0.84c0.98-0.98,2.1-1.54,3.37-1.96
		c1.4-0.42,6.31-2.24,7.57-1.96c3.65,0.98-1.4,4.77-2.67,5.89c-2.95,2.67-5.61,5.75-7.29,9.26c-0.56,1.4-1.54,4.21,0.7,4.35
		L468.52,224.16L468.52,224.16z M492.78,207.75l-0.42,0.14L492.78,207.75z M490.96,200.87l0.42-0.14L490.96,200.87
		c1.68,0,2.24,0.28,2.52,1.82c0.42,1.68,0.84,3.65-0.56,4.91c-0.7,0.28-1.4,0.7-2.24,0.84l-1.4,0.28c-1.4,0.28-2.95,0.28-4.07-0.14
		c-1.4-0.56-3.51-4.49-2.52-5.89C485.35,201.99,488.15,201.43,490.96,200.87L490.96,200.87z M482.54,202.56L482.54,202.56
		l-0.28,0.14L482.54,202.56L482.54,202.56z M482.12,202.84L482.12,202.84L482.12,202.84L482.12,202.84"/>
	<path id="XMLID_47_" class="st0" d="M83.32,103.8c0.28-0.14,5.61-3.09,7.57-4.21c3.79-1.96,7.57-2.81,7.86,1.54
		c0.28,2.52-1.96,4.91-3.65,6.45c-3.09,2.67-6.87,3.37-10.8,4.21c-0.84,0.14-1.54,0.42-2.24,0.7v-0.14
		c-0.14,0.14-1.12,0.84,0.14,1.54c1.82,0.98,3.79,1.68,5.75,2.38c0.7,0.28,2.81,1.4,3.51,1.12l0.98-0.56
		c1.12-2.1,2.67-3.79,4.49-5.33c2.1-1.68,3.79-3.23,5.05-5.61c1.12-2.24,1.68-4.77,1.4-7.15c-0.56-4.63-4.63-7.72-9.26-7.57
		c-3.93,0-14.03,5.61-14.73,5.89c-1.96,0.84-4.07,1.12-5.47-0.7c-1.54-1.82,0.42-5.05,2.24-5.89c1.96-0.98,4.35-1.12,6.45-1.4
		c1.82-0.28,4.21-0.14,5.75-1.4c1.82-1.54-3.93-3.65-4.91-4.21c-1.12-0.42-2.67-0.98-2.67-0.98c-0.84-0.56-1.54,2.67-2.81,3.37
		c-0.56,0.28-5.47,3.51-6.31,4.35c-2.81,3.51-4.21,8.98-0.56,12.34C74.2,105.63,79.4,105.35,83.32,103.8"/>
	<path id="XMLID_48_" class="st0" d="M441.86,126.25c0.84,3.51,1.12,7.15-1.96,9.54c-5.75,2.52-8.14-6.73-8.28-10.8
		c-0.14-2.67,0.98-5.05,1.12-7.72c0-1.12-0.84-1.54-1.82-0.98l0,0c0,0-4.49,4.21-6.03,6.31c-0.98,1.26-2.38,2.52-0.98,3.79
		c2.38,1.96,3.51,3.93,4.49,6.87c1.4,4.77,5.89,7.72,11.08,7.43c2.95-0.28,5.61-1.82,7.72-3.79c3.51-3.23,4.35-7.86,3.51-12.34
		c-0.56-3.37-2.38-6.59-2.52-9.96c0-0.84,0.28-1.54,0.98-2.1c4.21-1.68,5.75,5.19,5.89,8.14c0,1.96-0.28,3.79-0.7,5.61
		c-0.14,0.56-0.84,1.4,0,1.54c1.68,0.14,6.87-4.77,7.15-4.91c1.96-1.4-1.26-3.51-2.1-5.05c-0.56-0.98-0.84-2.1-1.4-3.09
		c-0.28-0.7-0.84-1.4-1.26-2.1c-2.24-3.65-7.72-7.72-12.2-5.19l-1.26,0.84c-0.14,0.14-3.51,2.95-3.79,5.89
		C439.62,118.11,440.88,122.32,441.86,126.25"/>
	<path id="XMLID_49_" class="st0" d="M495.31,254.88c-0.14,0-5.05-0.14-6.87,1.54c-2.95,2.95-5.19,8.14-6.59,12.2
		c-1.12,3.37-2.95,6.45-6.87,6.59c-8.7-3.23-3.93-12.34-0.7-14.87c2.38-1.96,3.79-3.09,5.33-4.21c0,0,1.26-1.54-0.14-1.12
		l-10.94,1.96c0.98,1.82,0.56,5.19-0.56,8.14c-1.68,4.77-0.28,10.94,3.93,13.61c2.38,1.54,5.61,1.82,8.56,1.54
		c4.77-0.56,7.29-3.79,9.26-8c2.52-5.19,1.68-8.42,4.77-11.08c0.7-0.56,1.4-0.56,2.24-0.7c4.35,1.12,2.38,8.28,0.7,10.66
		c-1.12,1.54-5.89,4.77-5.47,4.77c0.14,0-0.98,1.54,0.7,1.4c1.68-0.28,7.15-1.82,7.43-1.96c1.4-0.7,0.56-2.1,0.98-3.65
		c0.14-1.12,0.84-4.91,0.98-5.75C502.6,261.89,500.5,255.44,495.31,254.88"/>
	<path id="XMLID_52_" class="st0" d="M109.97,59.62c2.67,0.98,4.35,2.52,5.89,4.77c1.82,2.67,3.65,5.33,5.47,8.14
		c1.54,2.24,2.95,4.35,4.49,6.59c0.42,0.98,0.56,2.1,0.56,3.23c0,0.84-0.42,1.68,0.56,2.24l0.84-0.42c1.12-0.84,2.24-1.82,3.51-2.67
		c1.82-1.26,8.14-6.03,8.98-7.57c1.82-2.52,2.52-5.47,1.96-8.98c-0.7-5.61-4.63-11.22-9.4-14.17c-4.07-2.67-8.56-1.82-12.76,0.14
		h0.28c-1.54,0.7-11.36,6.45-12.06,7.43C107.73,58.92,109.55,59.48,109.97,59.62L109.97,59.62z M120.92,53.58
		c2.95-1.4,5.33,0.98,7.15,3.23c2.24,2.95,4.07,6.17,6.03,9.26c1.68,2.81,3.79,6.31,0.7,8.7c-1.68,0.42-2.24-0.98-3.23-2.24
		c-1.4-2.1-2.81-4.21-4.21-6.31c-2.24-3.37-4.49-6.59-6.73-9.96l-0.28,0.14l0.28-0.14C119.09,54.85,119.65,54.43,120.92,53.58"/>
	<path id="XMLID_55_" class="st0" d="M171.98,25.39c1.26,0.98,2.81,2.1,3.23,3.79c1.82,6.73,3.79,13.61,5.75,20.34
		c0.42,1.12,0.28,2.24,0,3.37c-0.14,0.84-0.98,1.68-0.42,2.38c0.7,0.98,4.91-0.84,5.75-1.26c3.09-1.12,6.31-1.96,9.12-3.65
		c8.84-5.19,7.43-16.27,3.51-24.13c-1.68-3.37-4.21-6.17-7.86-7.01c-4.49-0.98-9.54,0.7-13.75,1.96c-1.82,0.56-3.93,1.26-5.47,2.52
		C171.13,24.27,171.41,24.97,171.98,25.39L171.98,25.39z M183.76,23.43c6.73-2.52,8.7,10.38,9.68,14.45c0.84,3.51,2.1,8-1.12,10.52
		c-2.38,0.84-2.52-1.4-2.95-3.09c-0.7-2.52-1.4-4.91-2.1-7.29c-1.26-4.07-2.52-8-3.79-12.06C182.92,24.69,182.92,23.99,183.76,23.43
		"/>
	<path id="XMLID_59_" class="st0" d="M225,14.17c0.7,0.84,0.84,1.82,0.98,2.95c0.7,2.81,1.12,5.61,1.54,8.42
		c0.56,4.07,0.7,8.14,0.84,12.2c0,0.98,0,2.1,0.14,3.09c0,0.7-0.56,1.4-0.98,1.96c-0.7,1.26,1.26,1.54,1.96,1.4
		c4.35-0.56,9.26-0.56,13.33-2.1c1.12-0.42,2.24-0.84,3.23-1.54c0.7-0.42,1.4-0.98,1.96-1.54c3.37-3.23,4.35-8,4.49-12.48
		c0-4.07-0.7-8.98-2.95-12.48c-1.68-2.95-4.91-4.21-8.14-4.63c-4.77-0.56-10.1,0-14.87,0.7c-0.84,0.14-3.93,0.84-3.23,2.24
		C223.88,13.05,224.58,13.61,225,14.17L225,14.17z M235.66,12.62c7.57-2.24,6.87,12.76,6.87,16.69c0.14,3.51,0.7,7.43-2.24,9.96
		c-2.1,0.7-2.38-1.68-2.52-3.23c-0.28-2.67-0.56-5.33-0.84-8c-0.42-4.63-0.98-9.26-1.4-13.89L235.66,12.62z M235.24,12.76
		L235.24,12.76l-0.14,0.28L235.24,12.76"/>
	<path id="XMLID_64_" class="st0" d="M147.29,42.36c0.7,3.79,1.12,7.57,1.4,11.36c0.14,2.95,0.42,5.89,0.56,8.84
		c0,1.82,0.14,3.37-0.56,5.19c-0.42,0.84-1.4,1.96-1.12,2.95c0.14,0.7,1.82,0,1.82,0l0.56-0.42c1.82-1.4,6.59-3.37,7.01-3.51
		c0.7-0.42,1.4-0.84,1.26-1.54c-0.14-0.98-2.52-1.96-3.09-2.95c-0.7-1.12-1.12-3.65-0.28-4.49c1.4-0.7,6.31-2.81,7.43-2.95
		c0.84-0.14,2.95,2.95,2.95,3.23c0,0.56,0.28,1.12,0.28,1.82c-0.14,0.98,0.14,1.82,1.26,1.54c0.98-0.14,10.38-4.77,10.52-4.77
		c1.96-1.12-2.24-2.1-2.95-2.67c-1.54-1.26-12.76-13.75-16.55-18.8c-0.84-1.12-0.98-2.81-1.12-4.21c0-0.7-6.17,1.26-6.87,1.54
		c-0.56,0.14-4.21,2.1-4.77,2.67l0.98,2.24C146.87,38.72,147.01,40.82,147.29,42.36L147.29,42.36z M154.3,57.93l0.14-0.14
		L154.3,57.93z M158.23,49.8c0.7,0.84,1.4,1.54,0.42,2.38c-0.28,0.14-3.09,1.4-3.79,1.54c-0.7,0.14-1.26,0.14-1.82,0l-0.42-2.52
		c-0.14-2.52-0.7-8.14-0.7-8.28C153.6,43.34,157.39,48.82,158.23,49.8z M152.2,68.45c-0.98,0.56-1.82,1.26-2.67,1.82
		C150.09,70,150.93,69.16,152.2,68.45"/>
	<path id="XMLID_72_" class="st0" d="M448.18,151.78c-2.1,0.14-3.79-0.7-5.61-0.28l-1.12,0.28c-0.84,0.56,0.56,2.1,0.84,2.38
		c0.56,0.84,1.54,3.37,1.68,3.79c0.42,1.12,1.54,0.98,2.52,0.28l2.1-1.96c1.4-0.7,2.95-0.98,4.21-1.4c1.4-0.28,1.82,0.14,2.38,1.26
		c0.7,1.54,1.4,3.09,2.1,4.63c0.42,0.98,0.98,1.82,0.7,2.81c-0.14,0.84-4.77,3.79-5.75,4.07l-1.68,0.14l0,0c0,0-0.98,0.42-0.84,1.26
		c0.14,0.98,0.98,1.82,1.4,2.67c0.84,1.54,1.12,3.51,1.68,5.05c1.26,3.23,2.81,1.96,2.67,1.96c0.42-0.42,0.42-0.98,0.84-1.68
		c0.98-1.96,3.09-3.65,4.77-5.05c4.77-4.49,15.15-13.89,15.43-14.17c0.14,0,4.07-0.42,4.35-1.26H481h0.14H481
		c1.82-1.4-4.07-8.56-4.07-10.24c0-1.26-1.4-0.98-1.26-1.12c-0.14,0.14-1.26,0.14-3.09,2.81l-2.24,0.56
		C464.59,150.23,449.58,151.64,448.18,151.78L448.18,151.78z M448.32,156.41L448.32,156.41L448.32,156.41L448.32,156.41z
		 M476.79,158.09L476.79,158.09l0.14-0.14h0.14L476.79,158.09L476.79,158.09L476.79,158.09z M476.65,158.09L476.65,158.09
		L476.65,158.09L476.65,158.09L476.65,158.09z M463.04,159.77L463.04,159.77l0.28-0.14L463.04,159.77L463.04,159.77z M463.47,159.63
		L463.47,159.63L463.47,159.63L463.47,159.63L463.47,159.63L463.47,159.63z M460.24,153.74c0.98-0.28,7.43-0.28,7.43-0.28
		s1.4,0.42,0.56,1.54l-5.05,4.77h-1.26c-0.84-0.84-0.98-2.52-1.4-3.65C460.24,155.28,459.54,154.44,460.24,153.74"/>
	<path id="XMLID_76_" class="st0" d="M31.28,156.83l1.12-0.56c0.56-0.42,0.98-0.56,2.1-0.42c2.67,0.28,5.05,1.96,7.29,3.23
		c3.93,2.24,8,4.35,11.92,6.73l0,0c0.98,0.7,3.79,2.52,4.21,2.95c0.56,0.84,0.28,1.96,1.4,2.1l1.12-0.56l0,0l0,0l10.38-18.66
		c0,0-7.43-10.8-9.54-7.15c-0.7,1.12,1.12,3.37,1.54,4.35c0.56,1.54,0.7,3.37,0.56,5.05c0,1.54-0.28,4.91-1.4,6.31
		c-1.12,0-10.38-5.33-10.8-5.47c-0.14-0.14,0.84-3.37,3.09-3.79c0.98-0.28,2.95-0.28,3.37-0.84c1.26-1.68-7.01-5.05-9.12-5.61
		c-1.82-0.42-0.56,3.79-0.42,4.35c0.28,0.56,0.7,2.38-0.56,4.21c-2.38-1.12-8.56-4.35-9.4-4.63c-0.7-0.42,2.1-6.17,3.65-6.45
		c1.68-0.42,4.63-0.98,5.61-1.54c1.4-0.84-0.28-1.82-1.12-1.96c-1.54-0.28-3.09-0.42-4.63-0.7c-0.98-0.28-1.82,0.28-1.82,0.28
		c-1.68,1.12-6.03,11.08-7.29,13.75C31.98,152.48,29.04,156.97,31.28,156.83L31.28,156.83z M48.11,152.76l-0.42,0.28L48.11,152.76z
		 M32.96,155.7l-0.84,0.42L32.96,155.7"/>
	<path id="XMLID_79_" class="st0" d="M369.76,47.55c-2.38,4.07-10.1,16.83-11.92,18.24c-3.37,0.42-3.09,1.26-3.09,1.4
		c-1.26,1.26,2.81,2.38,3.51,2.67c3.51,1.68,13.05,7.57,14.45,8.56c0.84,0.42,1.54,1.26,2.52,1.54c0.14,0,1.96-0.14,7.43-6.59
		c0.7-0.7,2.24-2.67,0.14-2.38c-1.54,0.14-2.95,1.4-4.49,1.68c-2.95,0.7-6.59,0-9.12-1.26c-2.38-1.26-1.68-2.38-0.7-4.07
		c1.68-2.95,3.37-5.75,5.19-8.7c0.98,0.28,1.68,0.84,2.52,1.68c1.4,1.54,1.82,2.81,2.1,4.77c0.14,1.26,1.12,1.96,2.1,0.98
		c1.26-1.4,1.82-3.79,2.67-5.47c0.42-0.98,2.1-4.21,0.98-4.49c-0.84-0.14-2.38,0.56-3.23,0.84l-1.96-0.28
		c-1.4-0.28-2.38-0.28-3.23-1.54c1.68-2.52,3.23-5.19,5.19-7.57c1.82-0.14,3.93,2.67,4.63,3.79c0.98,1.54,1.68,3.23,2.24,5.05
		c0.56,1.54,2.1,1.26,2.1,1.26c0.56-0.14,0.98-0.56,1.26-1.4c0.42-1.4,1.82-5.05,1.82-5.75c-0.14-0.7-2.24-1.68-2.95-2.1
		c-4.49-2.95-8.98-5.89-13.61-8.7c-0.7-0.42-4.77-2.52-4.63,0.14c0,0.84,0.28,1.68,0.28,2.52
		C371.73,44.19,370.74,46.01,369.76,47.55z M357.7,66.07l-0.56,0.28L357.7,66.07L357.7,66.07L357.7,66.07z"/>
	<path id="XMLID_83_" class="st0" d="M468.09,242.39c0,1.82-0.28,3.65-0.14,5.47c0,0.84,0.14,0.7,0.42,1.54l0.84,0.28
		c0.14,0,6.87,0.98,8.28,1.26c1.96,0.42,2.52-0.98,1.26-1.54c-4.77-2.1-7.57-7.57-7.86-10.38c-0.42-2.67,0.98-2.67,2.95-2.95
		c3.37-0.28,6.73-0.56,10.1-0.84c0.28,0.98,0.28,1.82,0,2.95c-0.56,1.96-1.26,2.67-2.81,3.93c-0.98,0.84-0.84,2.1,0.7,1.68
		c1.96-0.42,5.89-1.68,7.72-1.82c1.82-0.14,0.84-1.12,0.84-1.26c-3.37-2.95-2.67-4.35-2.95-4.77c-0.56-1.4,0-1.26,1.4-1.26
		c3.09-0.14,6.03-0.56,9.12-0.56c1.12,1.4,0.28,6.73-0.28,8c-0.7,1.68-2.52,2.52-3.37,4.07c0,0-1.68,2.1,1.26,1.82l5.75-1.68
		c0.56-0.42,0-1.54,0-2.24c-0.14-5.33-0.56-10.38-0.84-15.71c-0.14-2.67-0.42-3.79-0.56-3.79c-0.42-0.42-0.98-0.56-1.82,0
		c-0.7,0.42-1.26,1.26-1.96,1.54c-1.68,0.84-9.26,0.28-10.66,1.26c-1.96,1.26-13.47,1.96-15.57,1.4c-0.7-0.42-0.56-0.84-1.82-1.4
		l0,0c-1.82-0.28-1.4,3.09-1.4,3.93C467.39,234.96,467.81,238.61,468.09,242.39L468.09,242.39z M469.78,228.65h-0.14l-0.42-0.42
		L469.78,228.65L469.78,228.65z M468.09,227.38L468.09,227.38L468.09,227.38L468.09,227.38"/>
	<path id="XMLID_87_" class="st0" d="M19.36,191.33c0.56-0.56,0.42-0.56,0.7-0.84c0.84-0.28,1.82-0.14,2.52-0.14
		c1.54,0,26.37-0.84,27.21,0.28c1.68,2.67,2.81,0.7,2.81,0.7c1.12-1.68,1.54-4.21,2.24-6.03c0.14-0.56,1.68-3.51,0.98-3.93
		c-0.56-0.28-1.68,0-2.38,0.14c-1.4,0.14-2.38-0.28-3.51-0.98c-6.17-4.35-12.91-8.84-18.38-14.31c-0.56-0.56-1.12-1.12-1.4-1.82
		c-0.42-0.84-0.98-3.37-1.96-2.81c-2.1,1.12-3.93,7.86-3.93,9.12c0,0.98,1.82,0,1.82,0c2.67-0.84,7.43,3.51,9.4,4.91
		c0.98,0.7,8,5.05,6.73,6.87c-0.98,0.28-14.03-0.14-15.43-0.28c-1.82-0.14-2.95-0.7-4.35-1.54c-0.98-0.56-1.4,0.28-1.54,0.42l0,0
		l0,0c-0.42,0.28-2.52,8.42-2.95,9.68C17.67,191.05,18.38,192.04,19.36,191.33L19.36,191.33z M26.51,170.43l-0.28,0.14L26.51,170.43
		z M19.78,190.63L19.78,190.63l-0.14,0.28L19.78,190.63"/>
	<path id="XMLID_88_" class="st0" d="M292.61,67.89c0,0,0.98-0.84,0.28-1.26c-3.65-2.1-6.45-5.47-9.4-8.42
		c-1.54-1.54-2.95-2.95-4.49-4.49l-2.1-1.68c0,0.28,2.95,4.21,4.21,5.89C284.48,61.86,288.26,65.23,292.61,67.89"/>
	<path id="XMLID_91_" class="st0" d="M274.38,77.57c0.98,1.12,3.23,2.24,4.77,1.4l1.54-1.12c-2.1,0.7-3.65-0.7-5.05-2.1
		s-2.67-2.67-4.35-3.79c-1.12-0.7-4.35-2.1-5.47-0.56l0,0c1.12,0.98,2.1,3.23,2.1,4.77c0.14,1.82,0,4.07,2.1,4.49
		c1.26,0.28,3.93-0.84,4.07-0.98l0,0c-2.67,0.98-4.49-0.42-4.21-3.09c0.28-2.52-1.54-3.79-1.68-3.93
		C270.59,73.92,270.87,73.36,274.38,77.57L274.38,77.57z M279.99,78.27L279.99,78.27L279.99,78.27L279.99,78.27"/>
	<path id="XMLID_94_" class="st0" d="M321.37,200.59L321.37,200.59c2.67,2.67,5.47,5.05,8.84,6.73c4.21,2.1,9.26,2.24,13.47,0.14
		c6.73-3.37,8.28-10.94,9.12-14.73l-1.26,0.7c-0.98,3.23-4.49,11.64-14.73,12.06C327.12,205.92,321.51,200.45,321.37,200.59z
		 M343.67,204.1L343.67,204.1L343.67,204.1L343.67,204.1"/>
	<path id="XMLID_95_" class="st0" d="M310.01,193.3c0.14,3.93,3.37,6.87,6.31,9.12l0,0l0.84-0.42c0,0-5.61-4.63-5.61-9.68
		L310.01,193.3"/>
	<path id="XMLID_96_" class="st0" d="M351.95,238.04c-2.67-2.95-11.64-4.63-12.06-4.77c3.51,1.26,8.56,2.81,10.8,5.89
		c0,0,0.14,6.03,0.28,10.1c0.28,4.35-1.12,9.26-4.91,12.06l1.54-0.84c5.33-4.07,5.33-12.48,4.77-18.52
		c-0.42-3.79,2.24-6.73,5.61-8.84C355.88,234.54,353.49,236.08,351.95,238.04"/>
	<path id="XMLID_97_" class="st0" d="M314.35,231.73c3.51-1.26,7.43-1.96,11.08-1.68l1.54-0.84c-3.79-0.28-7.72,0.42-11.08,1.68
		L314.35,231.73"/>
	<path id="XMLID_98_" class="st1" d="M374.67,304.25l-2.1,1.12c-0.28,0.28,0,0.42,0,1.96c-0.14,2.38-2.38,4.07-2.52,4.21
		C374.81,311.55,374.95,306.08,374.67,304.25"/>
	<path id="XMLID_99_" class="st1" d="M380,286.16l-1.54,0.84c0.42,3.51,0,7.15-1.68,10.24c-0.42,0.98-1.12,1.82-1.96,2.67l-0.84,0.7
		c-0.14,0.14-0.42,0.28-0.42,0.28h0.14c-0.14,0.14-0.14,0.14-0.14,0.14s0.98-0.56,1.12-0.56C379.58,297.38,380.56,291.21,380,286.16
		"/>
	<path id="XMLID_100_" class="st0" d="M365.27,265.54l-1.54,0.84c8.28,1.26,14.87,7.72,16.27,15.71
		C379.86,281.95,378.32,265.4,365.27,265.54"/>
	<path id="XMLID_101_" class="st0" d="M373.41,291.91l0.56-2.1c-2.81-13.89-23.29-14.45-23.71-14.45
		C360.92,277.88,368.64,281.67,373.41,291.91"/>
	<path id="XMLID_102_" class="st0" d="M357,265.4c-5.61-0.14-9.96-0.42-16.83,1.26c-0.84,0.14-1.68,0.28-2.38,0.7
		c-0.84,0.28-2.95-0.28-3.79,0c-1.82,0.42-2.67,1.96-3.09,2.1c0.84-0.42,3.79-1.96,6.59-1.12c0.84,0.28,5.33-2.24,17.96-2.1
		L357,265.4"/>
	<path id="XMLID_103_" class="st0" d="M254.6,296.96c-7.15-8-14.45-16.13-21.6-24.13l-0.56,0.28l-0.28,0.14
		c6.45,8.56,13.75,16.69,20.76,24.69l0.14-0.14l0,0l0,0l0.14-0.14l0.56-0.28l0.14-0.14l0,0l0.56-0.42L254.6,296.96l-0.14,0.14l0,0
		L254.6,296.96"/>
	<path id="XMLID_104_" class="st0" d="M282.93,285.88c-6.17,0.14-11.78,0-18.1,0.28c-1.54,0-5.89,0.7-6.03,0
		c-0.7-1.54-1.54-2.95-2.52-4.35c-3.93-6.03-8.42-11.78-13.05-17.25c-2.81-3.51-8.28-7.43-13.05-4.91c-1.4,0.7-1.96,2.1-2.95,3.37
		c0.28-0.42,3.93-2.38,5.19-2.81c3.65-0.84,7.57,3.23,9.68,5.75c4.49,5.61,8.98,11.22,12.76,17.11c0.84,1.26,1.68,2.67,2.24,4.07
		c0.28,0.7,0.14,0.84,0.84,0.84c1.54-0.14,4.49,0.7,6.03,0.7c6.31-0.14,11.78-0.14,18.1-0.28c10.1-0.28,21.46,0.14,30.72-1.4
		l0.7-1.26C303.41,285.88,293.31,285.6,282.93,285.88"/>
	<path id="XMLID_105_" class="st0" d="M310.71,291.07c-5.19,0.14-10.24,0.14-15.43,0.14l-1.54,0.84c5.19-0.14,10.38-0.14,15.43-0.28
		L310.71,291.07"/>
	<path id="XMLID_106_" class="st0" d="M283.49,294.15c-5.75,0.14-11.64,0.14-17.39,0.28l-1.54,0.84c5.89-0.14,11.64-0.14,17.39-0.28
		L283.49,294.15"/>
	<path id="XMLID_107_" class="st0" d="M257.54,298.22c3.93-0.14,7.72-0.14,11.5-0.14l1.54-0.84c-3.79,0-7.72,0.14-11.5,0.14
		L257.54,298.22"/>
	<path id="XMLID_108_" class="st0" d="M260.49,299.91l-1.54,0.84c19.78,0.56,39.7,1.12,59.62,1.54l1.54-0.84
		C300.19,300.89,280.27,300.33,260.49,299.91"/>
	<path id="XMLID_109_" class="st0" d="M304.82,299.48c4.21,0,8.28-0.14,12.48-0.14l1.54-0.84c-4.21,0-8.42,0.14-12.62,0.14
		L304.82,299.48"/>
	<path id="XMLID_110_" class="st0" d="M243.24,362.75l1.54-0.84c-7.86,2.95-16.97,0.84-24.41-2.52
		c-9.12-4.21-17.53-10.38-24.69-17.25c-7.29-7.15-18.38-25.81-18.38-25.81c3.37,9.54,9.26,19.22,16.41,26.23
		c7.15,7.15,15.71,13.19,24.97,17.53C226.12,363.73,235.38,365.69,243.24,362.75"/>
	<path id="XMLID_111_" class="st0" d="M295.56,394.73l-2.67,1.12c0.56,0.42,1.4-0.14,2.1,1.68c0.7,1.68,0.28,5.19-0.14,5.61
		C294.86,403.01,297.94,396.55,295.56,394.73"/>
	<path id="XMLID_112_" class="st0" d="M279.43,443.97c0,0,11.36-3.09,4.35-10.38l-2.38,2.95c-0.84,0.7,0.42,1.26,1.12,0.7
		c0.14,0,1.4,1.68,0.56,3.37C282.23,442.28,279.43,443.97,279.43,443.97"/>
	<path id="XMLID_113_" class="st0" d="M252.35,384.35c-1.12-0.98-2.52-0.28-3.93-0.42c-23.85-1.82-41.38-14.31-41.52-14.31
		c8.28,9.12,20.06,15.01,32.12,17.39C250.25,389.26,253.33,385.19,252.35,384.35"/>
	<path id="XMLID_114_" class="st0" d="M215.46,363.03c3.79,2.38,12.06,4.63,15.85,5.61c-7.57-2.24-24.27-11.64-24.27-11.78
		C209.71,359.1,212.52,361.07,215.46,363.03"/>
	<path id="XMLID_115_" class="st0" d="M276.62,386.31c-1.82,8.28-11.36,12.48-11.5,12.48C274.52,398.8,276.9,391.08,276.62,386.31"
		/>
	<path id="XMLID_116_" class="st0" d="M222.9,401.18c0,0,1.26-7.15-7.15-16.55c-13.19-14.87-26.51-39-26.37-38.86
		c2.52,6.87,8.56,18.24,14.17,26.51c3.23,4.63,7.01,8.56,10.52,13.05c2.95,3.79,6.73,8.42,7.01,13.47
		c-1.68-1.96-12.48-15.43-15.43-20.06c-3.51-5.75-6.87-11.5-9.82-17.53c0,0,4.77,12.48,8,18.1
		C213.78,395.57,222.33,400.76,222.9,401.18"/>
	<path id="XMLID_117_" class="st0" d="M187.55,377.06c0.84,5.05,1.26,10.1,1.96,15.15l0.56-0.28l0.14-0.14
		c0.42-0.42,0.14-2.81,0.14-3.37c0-1.68-0.14-3.37-0.28-5.05c-0.28-3.37-0.7-6.59-1.26-9.96c-1.12-6.17-2.81-12.62-5.89-18.1
		l-0.14,0.14c-0.7,0.42-1.4,0.84-2.1,1.26l0.28-0.14l-0.28,0.14c2.1,2.52,3.09,5.61,4.07,8.7
		C186,369.06,186.84,373.13,187.55,377.06"/>
	<path id="XMLID_118_" class="st0" d="M218.13,402.73c-5.19-2.24-10.66-3.65-16.27-3.79c-4.21-0.14-8.14,1.54-8.14,1.54
		c-0.14,0,13.89-0.7,22.3,3.65L218.13,402.73"/>
	<path id="XMLID_119_" class="st0" d="M240.71,399.22l1.54-0.84c-3.37,1.26-17.53-7.57-17.53-7.57
		C226.68,392.35,237.2,400.48,240.71,399.22"/>
	<path id="XMLID_120_" class="st0" d="M223.74,301.45c0.7,0.28,2.95,1.68,2.95,1.68l1.12-0.28c0,0-5.05-5.47-9.12-5.33
		c-1.4,0.14-7.01,2.81-7.15,2.81C215.6,299.34,219.95,299.48,223.74,301.45z"/>
	<path id="XMLID_121_" class="st0" d="M336.24,291.07c1.12-0.84-10.66-13.33-18.52-16.55l-0.56,0.28
		c13.05,7.86,18.38,16.55,18.24,16.55L336.24,291.07"/>
	<path id="XMLID_122_" class="st0" d="M350.26,307.9c1.54-4.77-0.56-10.38-4.07-14.17c0-0.14,4.77,8.28,2.67,15.15L350.26,307.9"/>
	<path id="XMLID_123_" class="st0" d="M348.72,288.82c-0.7-0.98-2.67-2.52-4.07-2.67l-0.7,0.42c0.14,0.28,4.35,4.91,4.77,6.45
		C348.86,293.73,349.98,291.07,348.72,288.82"/>
	<path id="XMLID_124_" class="st0" d="M188.53,82.76c-13.05,4.63-23.29,9.26-31,13.05c-15.01,7.15-34.79,22.58-43.2,28.76
		c11.78-8.42,54.43-37.03,98.61-46.99l0.84-0.28c8.7-2.38,9.68-4.49,8.98-5.47c-0.14,0.14-15.57,4.91-17.39,5.47
		C199.75,78.97,194.14,80.8,188.53,82.76"/>
	<polyline id="XMLID_125_" class="st1" points="209.85,80.52 209.57,80.8 209.85,80.52 	"/>
	<path id="XMLID_128_" class="st0" d="M118.81,115.87L118.81,115.87L118.81,115.87L118.81,115.87
		c39.42-28.48,86.13-46.99,100.44-50.64c-19.5,4.77-38.72,12.62-56.67,21.88C154.44,91.32,119.65,112.08,118.81,115.87z
		 M203.96,69.86c-3.93,1.4-7.86,2.81-11.78,4.21c-4.35,1.68-8.42,3.37-12.62,5.19C187.41,75.75,195.68,72.66,203.96,69.86"/>
	<polyline id="XMLID_129_" class="st0" points="141.82,98.75 142.38,98.47 142.66,98.33 141.82,98.75 	"/>
	<polyline id="XMLID_130_" class="st1" points="202.28,110.4 201.99,110.68 202.28,110.4 	"/>
	<path id="XMLID_131_" class="st0" d="M264.14,210.41c-14.31-2.24-40.4-0.98-40.54-0.84C236.36,209.85,263.72,210.41,264.14,210.41"
		/>
	<polyline id="XMLID_132_" class="st0" points="267.22,203.4 267.78,203.4 267.22,203.4 	"/>
	<path id="XMLID_133_" class="st1" d="M155.28,204.38c-3.51,0-7.15,0.28-10.52,0.98l-1.54,0.84l0,0l-0.28,0.14l-0.14,0.14
		l-0.28,0.14h0.14l0,0l0,0c1.4-0.28,2.81-0.42,4.07-0.56l20.62,0.14c1.12,0,2.24,0.14,3.37,0.28c1.12,0.14,2.95,0.56,4.21,0.56
		c0.42,0,0.98,0,1.26-0.14l1.26-0.84l0.42-0.28l0.28-0.28l-0.28,0.14l0.28-0.14C170.57,204.94,163,204.38,155.28,204.38"/>
	<path id="XMLID_134_" class="st1" d="M420.54,316.04l-1.54,0.98c-0.42,5.19-4.35,9.96-8.14,13.33l1.54-0.84
		C416.19,326.28,420.12,321.37,420.54,316.04"/>
	<polyline id="XMLID_135_" class="st0" points="233.84,448.32 234.68,447.75 234.82,447.75 233.84,448.32 	"/>
	<path id="XMLID_136_" class="st1" d="M451.12,282.65c-1.12,1.12,2.24,3.37,4.35,3.79c0.14,0-3.65-2.52-3.23-3.65L451.12,282.65"/>
	<polyline id="XMLID_137_" class="st1" points="392.77,106.75 392.63,106.75 392.77,106.75 	"/>
	<path id="XMLID_138_" class="st0" d="M315.9,68.03c0.28-1.12-1.96-0.98-2.38-1.4c-0.56-0.7,2.52-0.56,1.82-1.12
		c-1.26-1.26-3.23-0.98-4.63-0.84c-0.84,0-1.4,0.14-1.82,0c-9.82-3.79-11.08-5.05-14.59-8c-0.14-1.12-0.14-2.1-0.56-3.37
		c-1.82-4.07-8-5.47-8-5.47c1.54,1.4,3.23,2.81,4.49,4.49c1.4,1.68,1.68,3.51,2.1,5.47c0.98,2.95,5.75,7.43,5.61,7.29
		c-0.98-1.54-1.68-3.09-2.38-4.77c-0.28-0.7-0.56-1.4-0.84-2.1c5.05,4.63,10.8,10.24,17.25,11.5c0.14,0.14,0.14-0.28,0.28-0.7
		c0.14-0.56,0.42-1.12,1.26-0.56l7.86,4.21C321.51,70.42,315.34,70.14,315.9,68.03"/>
	<path id="XMLID_141_" class="st0" d="M327.12,79.68l0.98-0.84c1.12-1.82,1.54-3.93,1.54-6.03c0.14-4.35-1.68-8.56-3.93-12.34
		c-2.1-3.51-11.22-14.59-11.64-14.59l0,0c-0.28,1.12,2.81,3.65,3.51,4.35c2.52,3.51,4.63,7.15,6.17,11.08
		c1.4,3.51,2.52,7.43,2.67,11.36c-2.38-4.21-5.75-7.86-8.84-11.22c-0.28-0.28-1.4-0.28-0.84,0.56c4.07,5.33,7.01,9.54,9.26,15.15
		l0,0l-0.28,1.4L327.12,79.68L327.12,79.68z M326,78.41L326,78.41L326,78.41L326,78.41"/>
	<path id="XMLID_144_" class="st0" d="M311.69,79.54c0.7-0.28,0.42-2.52,0-2.52l-0.14-0.14c-4.21-1.4-8.42-2.95-11.92-5.75
		c-0.84-0.7-1.68-1.54-2.38-2.24l-0.98-1.12l-1.12,0.14v0.14l0,0c3.23,4.35,7.15,8.42,12.2,10.66
		C308.46,78.97,310.71,80.1,311.69,79.54L311.69,79.54z M311.41,76.87L311.41,76.87L311.41,76.87"/>
	<path id="XMLID_145_" class="st0" d="M301.17,78.83l3.65-0.14c-3.51-1.68-9.54-5.33-11.64-8
		C293.17,70.56,293.73,73.92,301.17,78.83"/>
	<path id="XMLID_146_" class="st0" d="M314.07,76.03L314.07,76.03c0.84,0.14,1.54,0.28,2.38,0.28c0.84,0.14,1.68,0.7,2.52,0.84
		c0.7,0.14,0.7-1.4,0.7-1.54c-0.28-0.28-2.95-2.24-5.19-1.82c0,0-6.87-1.26-9.26-3.79h-0.42c-0.28,0.7,0.28,1.54,0.7,1.82
		C307.9,74.2,311.27,75.19,314.07,76.03L314.07,76.03z"/>
	<path id="XMLID_147_" class="st1" d="M295,48.11l-1.54,0.84c1.26,0.84,2.95,1.12,4.49,1.12c0.56,0,0.98,0,1.4-0.14l1.54-0.84
		c-0.42,0.14-0.98,0.14-1.4,0.14C297.94,49.24,296.26,48.82,295,48.11"/>
	<path id="XMLID_148_" class="st0" d="M298.22,51.06l-1.54,0.84c3.23,0.7,6.87,0.98,9.26-1.4
		C305.52,50.92,300.47,51.62,298.22,51.06"/>
	<path id="XMLID_149_" class="st0" d="M306.36,55.69c-0.14,0-1.26,2.1-2.52,1.68l-0.84,1.68c2.1,0.7,3.51-0.7,4.91-3.37
		L306.36,55.69"/>
	<path id="XMLID_150_" class="st0" d="M303.55,60.88l0.7,0.42c2.1,0.14,4.35-1.26,6.03,0.14c0.14,0.14,1.12,0.14,0.7-1.12
		c-2.81-3.37-2.95-1.4-5.89-0.28L303.55,60.88"/>
	<path id="XMLID_151_" class="st0" d="M325.44,101.98c1.82,0.14,3.23,1.82,4.77,3.09l0.56-1.12c-0.56-1.4-1.12-4.21-2.95-4.35
		C326.28,99.31,325.44,101.98,325.44,101.98"/>
	<path id="XMLID_152_" class="st0" d="M329.36,84.3c0,2.67-0.42,5.47-1.96,7.72l-2.95,2.24c4.91-0.98,7.01-6.45,7.01-10.66
		C331.47,83.88,329.36,82.48,329.36,84.3"/>
	<path id="XMLID_153_" class="st0" d="M333.15,79.82c1.26-2.81,2.81-6.73,3.09-9.68l-1.54,0.84
		C330.06,82.2,333.15,79.82,333.15,79.82"/>
	<path id="XMLID_154_" class="st0" d="M251.09,421.38l3.09-1.82c-2.38-0.14-7.86,1.68-10.1,4.07
		C244.92,422.93,249.69,421.24,251.09,421.38"/>
	<path id="XMLID_155_" class="st0" d="M261.61,418.3c1.4,0,2.95-0.28,4.21-0.84c1.12-0.42,6.03-3.79,6.59-4.77l-2.95,1.4
		c-0.7,1.26-4.07,2.38-4.77,2.38L261.61,418.3"/>
	<path id="XMLID_156_" class="st0" d="M269.19,419.14c1.12,0.14,2.24,0,3.37-0.28c0.84-0.28,4.21-2.24,4.91-2.95
		c-0.28,0.42-3.79,1.68-5.19,1.54L269.19,419.14"/>
	<path id="XMLID_157_" class="st0" d="M90.62,169.17c24.27-16.97,50.36-31.84,78.41-42.08c6.03-2.1,12.2-4.63,18.1-7.29
		c3.65-1.68,15.99-8.7,17.96-10.94c-0.7,0.7-21.88,11.78-39.14,17.96c-19.64,7.01-37.73,18.24-55.41,29.04
		c-8.84,5.33-17.53,10.94-25.95,16.83C86.41,171.41,88.79,170.57,90.62,169.17"/>
	<path id="XMLID_158_" class="st0" d="M199.89,107.17c-28.9,9.96-56.67,24.13-82.62,39.84c-9.96,6.03-19.64,12.62-28.9,19.78
		c1.82-1.4,4.35-2.1,6.17-3.51c18.38-14.45,38.58-26.09,59.62-36.05c12.2-5.75,24.69-11.22,37.45-15.85c0.7-0.28,1.4-0.56,2.1-0.7
		C195.96,110.12,197.65,108.01,199.89,107.17"/>
	<path id="XMLID_159_" class="st0" d="M182.08,146.59c-0.42,0.42-5.89,3.37-7.72,4.35c-1.26,0.7-9.12,4.35-14.31,6.03
		c-7.86,2.67-15.15,6.17-22.44,10.1c-12.34,6.17-24.27,13.33-35.91,20.48c-5.75,3.51-11.36,7.15-16.83,10.94
		c-0.42,0.28,3.65-1.96,6.17-3.37c2.52-1.54,5.19-2.81,7.57-4.49c3.51-2.52,24.55-15.15,27.07-16.27
		c7.01-3.51,14.03-6.31,21.46-8.84C160.75,160.75,181.09,147.57,182.08,146.59"/>
	<path id="XMLID_160_" class="st0" d="M167.91,146.59c-9.96,3.51-19.5,7.72-29.04,12.2c-10.52,5.05-20.9,10.8-30.86,16.69
		c-11.08,6.45-22.02,13.19-32.12,21.04c0.56-0.42,13.05-7.15,15.29-8.98c3.93-3.09,7.86-6.03,12.06-8.7
		c1.96-1.4,18.52-10.24,26.09-13.75c7.57-3.51,15.29-6.73,23.29-9.54C155.28,154.72,167.21,146.87,167.91,146.59"/>
	<path id="XMLID_164_" class="st0" d="M80.52,376.92v-0.28c-0.7-3.79-5.75-10.66-5.89-10.94l-2.95-4.49l-2.24,1.54
		c-1.4,0.84-3.51,0.98-5.05,1.4c-3.79,0.84-17.39,1.96-20.48,2.1c-1.82,0.14-3.37,0.28-5.19-0.28c-0.98-0.28-1.54-1.54-2.52-1.26
		c-0.7,0.14-0.56,0.7-0.28,1.12c0,0,3.09,3.23,3.79,7.15c0.14,0.28,4.91-3.37,8.84-1.4c0.7,1.4,4.91,8.7,4.63,10.94
		c-0.84,1.82-4.77,4.77-4.77,4.91l0.14,0.7V388l3.37,5.89c0.14,0.28,1.4,2.1,1.82-0.42c0.42-1.82,2.52-6.31,3.93-7.72
		c1.26-1.26,2.67-2.52,3.93-3.79l1.54,1.54c1.12,1.54,2.52,2.52,1.26,5.61c-1.4,3.23-5.47,8.42-6.17,10.8
		c-0.42,1.26,2.52,5.47,2.52,5.47c0.84,0.84,1.12,0,1.54-0.98c2.24-5.33,6.73-10.94,6.45-14.03l0.28-3.37
		c1.82,0.42,5.89,0.14,7.15-0.42C79.82,385.05,81.22,380.84,80.52,376.92L80.52,376.92z M52.88,370.88l2.67-0.56
		c2.52-0.28,7.72-0.98,7.57-0.28c-0.56,1.68-3.09,4.77-3.37,5.05c-1.26,0.84-2.1,2.38-3.37,3.09L52.88,370.88z M70.42,381.55
		c-2.38,1.12-5.75-0.14-7.01-2.1c2.1-1.96,8.28-11.36,8.98-10.24c0.7,0.98,2.67,3.09,2.81,4.91
		C75.05,376.78,72.52,380.56,70.42,381.55"/>
	<path id="XMLID_165_" class="st0" d="M87.95,400.76l2.95,2.52c0,0,2.24-1.82,3.23-3.51c0.28-0.84,2.52-5.33-2.52-8.14
		c0,0-5.05-5.33-13.33,1.12c0,0-14.45,9.26-12.06,19.22c0,0,3.37,9.54,12.2,8.42c0,0,3.37,0.14,4.91-2.67c0,0,0.42-1.54,1.96,0.7
		c0,0,1.82,1.26,0,2.95c0,0-2.24,3.65-5.33,3.93c0,0-2.38,0-0.56,2.38l3.93,4.35c0,0,2.24,1.96,2.81-0.56c0,0,6.17-8.42,16.55-16.55
		c0,0,3.23-4.07,3.51-0.84c0,0,0.56,5.47,2.67,2.81c0,0,1.4-2.38,2.81-3.09c0,0,2.38-0.14-0.14-2.38l-10.8-10.66
		c0,0-1.12-2.81-3.37-0.14l-1.68,1.82c0,0-2.24,1.96,0.98,2.38c0,0,2.81,0.28,3.79,3.09l-9.96,9.54c0,0-0.98,1.96-2.38-0.14
		l-5.19-6.45c0,0-1.96-2.67-2.81,0.7c0,0-0.42,3.93-5.47,4.91c0,0-2.67,0.42-4.21-3.09c0,0-0.84-1.82,3.23-6.03l11.78-11.22
		c0,0,2.1-2.52,4.49-0.98C89.35,395.15,91.46,397.12,87.95,400.76"/>
	<path id="XMLID_166_" class="st0" d="M93.14,436.53c0,0-2.67,2.24-0.56,3.93l2.67,2.67c0,0,1.68,1.82,2.52-0.7
		c0,0,0.28-1.68,2.24-3.93l8.28-8.14c0,0,0.84-1.4,0.98,0.42l-4.07,16.83c0,0-1.12,4.63,2.38,3.51l16.55-10.94
		c0,0,1.96-1.82,1.26,1.26l-7.01,16.41c0,0-1.12,1.68,0.7,2.95l2.24,1.68c0,0,2.38,1.68,2.81-0.56l10.52-27.63
		c0,0,1.82-3.93-1.68-5.47c0,0-1.82-0.7-4.91,1.54l-11.64,8c0,0-1.82,0.42-1.68-1.68c0,0,2.38-7.86,2.81-9.68c0,0,2.52-8,0.56-9.54
		c0,0-2.1-2.95-4.21-0.7L93.14,436.53"/>
	<path id="XMLID_167_" class="st0" d="M142.52,436.25c0,0-2.81-2.52-3.65,0.84l-8,27.91c0,0-1.82,2.52,0.84,3.65
		c0,0,1.96,0.7,1.96,1.54c0,0,2.67,0.98,4.07-0.84l21.46-21.32c0,0,2.38-1.82-0.56-3.09l-2.67-1.26c0,0-2.67-1.68-4.07,1.54
		c0,0-0.14,2.24-3.79,5.33l-6.45,5.61c0,0-1.4,0.98-0.98-0.84l4.21-13.47C144.76,441.72,147.15,438.22,142.52,436.25"/>
	<path id="XMLID_168_" class="st0" d="M165.52,448.18c0,0-2.52-1.96-4.35,1.4l-12.62,24.41c0,0-3.23,2.95-0.56,3.65l2.52,1.26
		c0,0,1.82,1.4,3.09-0.84l12.34-24.69c0,0,2.52-3.37,0.56-4.63C164.54,447.47,165.52,448.18,165.52,448.18"/>
	<path id="XMLID_169_" class="st0" d="M210.27,476.79c0,0,2.81-4.77-1.4-4.49c0,0-4.77-1.4-5.47,4.07c0,0,0.14,2.52,0.84,4.21
		l1.54,14.87c0,0-0.14,2.1,1.82,2.38c0,0,2.1,0.84,3.93-1.96l15.01-23c0,0,2.38-1.96-0.98-2.95c0,0-3.37-1.68-4.35,0.14
		l-10.38,14.73C210.97,484.79,209.57,487.31,210.27,476.79"/>
	<path id="XMLID_170_" class="st0" d="M242.53,477.49c0,0-0.7,2.67-2.81,0.7c0,0-2.81-3.09-4.63,0.28c0,0-1.96,1.12,5.47,8
		c0,0,7.01,6.87-1.54,14.59c0,0-5.19,5.33-17.11-1.82c0,0-2.95-0.84-1.68-3.65l1.82-2.81c0,0,1.54-3.09,3.93,0.28
		c0,0,0.84,4.63,6.87,4.49c0,0,6.87-1.12-0.98-10.94c0,0-7.15-10.8,2.1-13.61c0,0,5.05-0.98,8.14,1.26
		C242.25,474.27,244.08,474.83,242.53,477.49"/>
	<path id="XMLID_173_" class="st0" d="M205.08,463.32c0,0-1.96-0.14-6.45-1.96c0,0-4.63-2.95-6.73-0.42c0,0-3.23,4.77-0.14,4.77
		c0,0,2.52-1.26,3.51-0.84c0,0,1.12-0.7,0.42,2.38l-7.29,19.5c0,0-0.7,3.51-4.35,0.28c0,0-1.54-1.4-1.82-6.31c0,0,0-4.77-1.54-6.87
		c0,0,3.37-0.7,5.75-4.07c0,0,2.95-4.21,1.4-9.4c0,0-1.26-3.23-4.91-4.63l-8.42-3.65c0,0-3.93-1.82-3.09,1.82
		c0,0,0.14,2.81-1.26,5.33l-9.96,20.2c0,0-1.96,2.81,0.84,3.65l3.79,1.82c0,0,2.1,1.68,2.67-0.84c0,0,0.84-4.63,2.38-7.43l2.24-4.91
		c0,0,4.77,0.84,5.33,8.84c0,0-0.84,10.1,6.31,11.64c0,0,8,2.95,10.8-3.93l7.01-18.94c0,0-0.14-2.67,1.68-2.24
		c0,0,0.7-0.42,1.96,0.7c0,0,2.67,1.26,2.67-1.54C207.47,466.41,208.17,463.75,205.08,463.32L205.08,463.32z M174.92,469.5
		c-2.95,0.14-1.4-2.38-1.4-2.38l4.07-8.42c0.56-2.38,1.96-0.98,1.96-0.98l2.38,1.68c2.24,2.52-1.4,8.56-1.4,8.56
		C179.55,470.48,174.92,469.5,174.92,469.5"/>
	<path id="XMLID_176_" class="st0" d="M272.83,499.8c0,0-3.65,0.7-7.15-7.29c0,0-1.12-2.67-3.37-4.35c0,0,5.05-1.26,4.77-8.56
		c0,0,0.7-5.61-6.59-6.87l-9.12-0.42l-2.81,0.84l0.42,0.7l-1.12,23.43c0,0,0.28,2.1-0.42,3.09c0,0-2.24,2.95,1.26,3.09l3.65,0.14
		c0,0,3.09,0.7,2.81-2.24l-0.14-11.08c0,0,3.23-2.95,5.89,4.63c0,0,4.49,11.5,12.76,7.29C273.96,502.04,276.48,500.5,272.83,499.8
		L272.83,499.8z M260.77,480.72c0.14,3.51-2.67,4.63-2.67,4.63c-2.95,1.68-2.67-1.12-2.67-1.12l-0.14-7.86
		c-0.14-1.96,3.23-1.26,3.23-1.26C261.61,475.25,260.77,480.72,260.77,480.72"/>
	<path id="XMLID_179_" class="st0" d="M279.57,475.11c0,0-11.78-1.12-10.8,12.48c1.12,13.75,14.03,10.94,14.03,10.94
		s7.01-2.38,6.59-13.19C289.1,476.23,279.57,475.11,279.57,475.11z M279,494.75c0,0-3.93,1.26-4.35-8.42c-0.42-9.4,4.35-8,4.35-8
		s4.91,0.7,4.91,7.29C283.77,495.73,279,494.75,279,494.75"/>
	<path id="XMLID_183_" class="st0" d="M315.06,485.77c0,0-1.12-4.63-5.75-5.89c0,0-1.54-0.28-0.56-1.82c0,0,4.77-9.4-4.63-12.91
		c0,0-10.1,1.96-11.92,0.42c0,0-0.7,1.26-1.96,1.4c0,0-2.67,0.42-0.42,3.65c0,0,1.26,0.42,2.81,12.76c0,0,1.54,9.68,1.26,12.76
		c0,0-1.96,4.63,1.54,4.07c0,0,1.12-0.56,6.31-1.12c0,0,7.57-1.82,8.7-2.38C310.57,496.71,316.74,495.17,315.06,485.77z
		 M297.94,478.61l-0.7-5.05c-1.26-5.75,2.24-5.33,2.24-5.33c4.91-1.68,4.63,5.47,4.63,5.47c0.7,6.45-3.65,6.17-3.65,6.17
		C296.96,481.28,297.94,478.61,297.94,478.61z M308.74,489.98c-0.28,6.45-6.17,6.17-6.17,6.17c-2.52,0.42-2.38-1.54-2.38-1.54
		c0-2.81-1.26-8.84-1.26-8.84c-0.84-3.79,6.03-3.09,6.03-3.09S309.16,482.96,308.74,489.98"/>
	<path id="XMLID_186_" class="st0" d="M353.21,479.88c0,0-2.1-0.56-5.47-5.19c0,0-3.79-4.63-6.45-4.91c0,0,5.19-4.77,3.51-9.96
		c0,0-0.42-7.72-10.1-5.47l-6.73,1.82c0,0-1.96-0.28-0.98,3.51c0,0,1.96,18.1,0.98,22.86c0,0-4.07-6.31-5.47-8
		c0,0-5.89-9.12-5.47-10.94c0,0,1.12-4.63-1.54-2.81c0,0-3.79,2.1-5.33,1.96c0,0-3.09-0.42,1.12,3.37c0,0,2.1,0.84,6.45,8.42
		l9.4,14.87c0,0,1.82,3.37,4.35,1.68c0,0,2.38-0.28,2.67-3.09l-0.28-14.17c0,0,0.28-3.79,4.49-0.84c0,0,0.98,0.7,5.47,6.31
		c0,0,4.07,6.31,9.54,3.65C353.49,482.96,356.3,481.28,353.21,479.88L353.21,479.88z M336.24,468.8c-2.52,1.82-2.1-0.56-2.1-0.56
		l-0.42-8.28c-0.42-3.51,2.52-2.67,2.52-2.67c3.23-0.28,3.65,5.61,3.65,5.61C340.16,466.97,336.24,468.8,336.24,468.8"/>
	<path id="XMLID_187_" class="st0" d="M352.09,451.82c0,0-0.98-2.1-3.23-0.14l-1.4,2.67c0,0-0.84,2.81-2.67,0.14l-1.12-2.52
		c0,0-1.26-1.96,2.24-2.52c0,0,10.1-4.77,11.36-5.61c0,0,1.82-2.24,3.37,0.28c0,0,2.95,2.24-0.14,3.51c0,0-5.05-0.42-3.37,1.96
		l10.66,21.18c0,0,4.07,2.52,1.96,4.35l-8.98,4.77c0,0-3.09,1.82-3.79-0.56c0,0-1.4-3.51,1.82-4.07l2.81-0.7c0,0,1.68,0,0.28-3.51
		l-2.81-5.47c0,0-0.42-1.96-2.52-0.28c0,0-3.79,3.51-5.33,1.54c0,0-3.09-2.38,0.42-4.35l3.23-2.1c0,0,1.68-0.28,0.14-2.67
		C354.89,457.29,351.81,452.38,352.09,451.82"/>
	<path id="XMLID_188_" class="st0" d="M379.58,440.18c0,0,0.28,3.79,3.23,1.12c0,0,2.1-2.52,0-5.19c0,0-1.96-5.61-11.64-1.4
		c-7.43,3.09-4.21,11.22-4.21,11.22s0.56,5.89,12.76,6.31c0,0,9.4-0.42,5.75,7.43c0,0-2.1,3.51-7.43,1.26c0,0-5.47-2.81-5.33,3.51
		c0,0,0.42,3.37,9.12,3.23c0,0,12.48-1.26,10.24-13.19c0,0-0.56-7.86-14.31-8.28c0,0-8.42,0-5.33-5.75
		C372.43,440.46,378.32,435.55,379.58,440.18"/>
	<path id="XMLID_189_" class="st0" d="M389.54,429.24c0,0-0.7-1.68-2.24-0.14c0,0-1.82,2.1-1.96,2.95c0,0-1.12,2.67-2.52,0.42
		l-1.12-2.52c0,0-1.12-1.54,1.54-3.37l10.38-8.28c0,0,1.82-2.24,3.65,0.42c0,0,2.52,1.82-0.14,3.65c0,0-3.23,0.7-3.79,1.96
		c0,0-1.26,0.7,0.14,2.1l12.06,16.55c0,0,1.26,1.82,3.79,2.67c2.38,0.98,0.7,2.38,0,3.51l-2.38,1.96c0,0-2.95,2.52-3.93-0.84
		c0,0-0.98-4.07-2.67-5.75L389.54,429.24"/>
	<path id="XMLID_190_" class="st0" d="M404.69,424.75c0,0-2.52-1.54-3.79,0.7c0,0-3.51,2.81,1.4,4.63l16.97,7.72
		c0,0,1.12,1.54,2.81,0.14l2.1-1.68c0,0,1.4-0.84,0.28-4.07l-9.54-23.15c0,0-1.4-2.1-1.4-6.17c0,0-0.14-3.79-2.52-0.84l-3.51,3.23
		c0,0-2.81,3.23,0.28,4.07c0,0,1.68-0.7,3.09,3.23l8,17.96c0,0,0.7,1.12-0.98,0.84L404.69,424.75"/>
	<path id="XMLID_193_" class="st0" d="M443.55,401.32c0,0-9.68-11.22-16.97-11.08c0,0-5.61-0.7-9.4,4.49c0,0-1.26,2.67-2.24,2.52
		c0,0-2.81,2.38,1.12,4.07c0,0,4.49,1.54,16.55,15.99c0,0,0.98,0.14,1.68,4.07c0,0,0.84,5.19,4.07,1.26l7.43-9.12
		C445.79,413.39,449.58,406.93,443.55,401.32z M439.06,414.65l-15.85-14.73c-4.07-1.82-1.12-4.63-1.12-4.63
		c2.81-2.67,7.57,1.26,7.57,1.26c5.33,3.09,10.52,9.82,10.52,9.82C443.13,410.86,439.06,414.65,439.06,414.65"/>
	<path id="XMLID_194_" class="st0" d="M428.12,380.56c0,0-2.52,2.52,1.4,3.79l22.16,15.99c0,0,1.82,2.52,3.23,0.7l1.68-1.82
		c0,0,1.82-2.38-0.84-3.51c0,0-1.96-0.28-6.59-3.37c0,0-12.62-9.82-15.01-11.22C434.43,381.26,430.92,376.21,428.12,380.56"/>
	<path id="XMLID_195_" class="st0" d="M454.49,348.44c0,0-5.89-2.95-6.87-0.14c0,0-1.82,2.1,1.82,4.77l5.19,5.05
		c0,0,2.24,1.96-1.12,1.4l-6.73-1.82c0,0-3.09-1.68-4.21,1.54c0,0-2.1,1.82,1.82,5.47c0,0,13.61,13.05,14.03,14.87
		c0,0-4.21-1.12-19.22-7.43c0,0-3.37-3.93-5.33,0.7c0,0-2.24,2.95,2.24,4.35l25.53,9.12c0,0,3.37,0.98,4.35-1.26
		c0,0,2.24-2.24-0.42-5.05l-14.03-15.43c0,0-1.4-1.12,0.84-0.98l12.62,3.51c0,0,3.23-0.14,1.26-2.38l-10.38-10.66
		c0,0,20.06,3.51,20.2,6.59c0,0,2.38,2.67,3.09-0.7l0.98-2.24c0,0,2.1-3.51-2.38-3.51"/>
	<path id="XMLID_196_" class="st0" d="M218.97,28.34c0,2.52-2.38,4.77-5.05,4.77c-2.95,0.14-5.19-2.1-5.19-4.63
		c-0.28-2.52,2.1-4.91,5.05-5.05C216.58,23.71,218.97,25.53,218.97,28.34"/>
	<path id="XMLID_197_" class="st0" d="M296.4,25.95c0,2.52-2.24,4.77-5.05,4.77c-2.95,0-5.19-2.1-5.19-4.63
		c-0.28-2.52,2.1-5.05,5.05-5.05C294.01,21.32,296.4,23.15,296.4,25.95"/>
	<path id="XMLID_198_" class="st0" d="M461.5,141.12c0,2.52-2.38,4.77-5.05,4.77c-3.09,0.14-5.19-2.1-5.19-4.77
		c-0.28-2.38,2.1-4.91,5.05-4.91C459.12,136.49,461.5,138.31,461.5,141.12"/>
	<path id="XMLID_199_" class="st1" d="M502.32,290.79l-1.54,0.84c2.24,13.61-1.96,27.21-8.42,39c-1.68,3.09-3.37,5.89-5.47,8.7
		l-0.42,0.42l0.56,1.82c0,0.7-0.14,1.4-0.14,2.1c-0.42,1.96-1.26,3.93-2.38,5.61l1.54-0.98c0.98-1.54,1.68-3.23,2.24-5.19
		c0.42-1.4,0.42-2.67,0-4.07l0.14-0.7c1.96-2.81,3.79-5.75,5.61-8.7C500.36,318,504.57,304.25,502.32,290.79"/>
	<polyline id="XMLID_200_" class="st1" points="457.29,304.39 457.15,304.53 457.29,304.39 	"/>
	<path id="XMLID_201_" class="st0" d="M452.66,335.68c-0.42-1.26-1.96-0.98-1.54,0.84c-0.14,6.45,5.33,7.86,5.75,8.14
		c1.54,1.12,5.61,0,7.86,2.67l0.7-0.84l-3.51-3.79v1.82c0.42,0.42-2.24-2.24-4.07-2.38c-0.84-0.14-2.1,0-2.81-0.56L452.66,335.68"/>
	<path id="XMLID_205_" class="st1" d="M457.01,332.31c0.56,0.7,1.26,1.4,1.68,2.24c0.14,0.28,0.42,0.7,0.56,1.12
		c-0.28-0.7-0.56-1.4-0.84-2.1C458.13,333.29,457.57,332.73,457.01,332.31 M455.61,323.75L455.61,323.75L455.61,323.75
		 M455.75,323.19L455.75,323.19L455.75,323.19"/>
	<path id="XMLID_210_" class="st1" d="M459.26,335.68c0.56,1.82,0.84,4.07,0.28,5.75C460.1,339.46,460.1,337.5,459.26,335.68
		 M455.61,323.75c-0.56,2.38-0.42,4.21-1.4,6.59c0,0,1.54,0.98,2.95,1.96c-0.14-0.28-0.28-0.42-0.42-0.7
		C455.19,329.22,455.05,326.42,455.61,323.75 M455.75,323.33c0,0.14-0.14,0.28-0.14,0.42C455.61,323.61,455.75,323.47,455.75,323.33
		 M457.43,321.79l-1.54,0.84c0,0.14-0.14,0.42-0.14,0.56c0-0.14,0.14-0.42,0.14-0.56L457.43,321.79"/>
	<path id="XMLID_211_" class="st3" d="M457.43,321.79l-1.54,0.84c0,0.14-0.14,0.42-0.14,0.56v0.14c0,0.14-0.14,0.28-0.14,0.42l0,0
		c-0.56,2.67-0.42,5.47,0.98,7.86c0.14,0.28,0.28,0.42,0.42,0.7c0.56,0.42,1.12,0.98,1.4,1.26c0.42,0.56,0.7,1.26,0.84,2.1
		c0.84,1.82,0.84,3.79,0.28,5.75l1.54-0.84c0.28-0.84,0.28-1.54,0.28-2.24c0-2.52-1.26-4.77-2.95-7.01
		c-1.12-1.4-1.68-3.23-1.68-5.19C456.73,324.45,457.01,323.05,457.43,321.79"/>
	<path id="XMLID_212_" class="st3" d="M464.87,329.22l-1.54,0.84c-0.42,1.82-0.98,3.65-1.4,5.47l1.4-0.84
		C463.75,332.87,464.31,331.05,464.87,329.22"/>
	<path id="XMLID_213_" class="st0" d="M465.57,321.09c-0.84-5.19,2.52-12.62,4.91-16.41c-0.28,0.42-5.75,7.57-6.59,11.92
		c-0.28,1.26-0.28,4.07,0.14,5.33L465.57,321.09"/>
	<path id="XMLID_216_" class="st1" d="M460.24,309.58L460.24,309.58L460.24,309.58L460.24,309.58 M467.39,300.19l-1.54,0.84
		c-2.81,2.24-5.33,8-5.61,8.56C462.06,306.22,464.31,302.71,467.39,300.19"/>
	<path id="XMLID_217_" class="st3" d="M465.85,323.75l-1.54,0.98c-1.12,0.84-1.82,1.96-1.96,3.37l0.84-0.42l0.7-0.42
		C464.03,325.72,464.73,324.45,465.85,323.75"/>
	<path id="XMLID_218_" class="st0" d="M51.62,313.09c0.98,4.07,2.95,9.82-3.23,12.91c0,0,1.26,0.7,0.98,2.38
		c0,0.28,0,1.26,1.82,2.24c0,0,0-3.51,1.26-4.35c4.77-3.51,1.4-12.62,0.56-13.47C51.62,311.55,51.62,312.95,51.62,313.09"/>
	<path id="XMLID_219_" class="st0" d="M75.89,325.58c-0.7,0-4.49-1.54-4.21,2.52l2.67-0.42l1.12-0.98L75.89,325.58"/>
	<path id="XMLID_220_" class="st0" d="M68.73,334.69l1.26,0.56c0.14,0,0.14-3.37,0.14-4.21l-0.98-0.14l-0.56,0.98
		C68.59,331.89,67.61,333.85,68.73,334.69"/>
	<path id="XMLID_221_" class="st0" d="M60.88,341.43l2.1-1.68c-0.28,0.14,1.54,0.84,2.38,0.7c0.7-0.14,2.67-3.09,3.51-4.07
		l-1.54,0.84C67.33,337.22,60.88,336.24,60.88,341.43"/>
	<path id="XMLID_222_" class="st0" d="M81.92,320.39c-0.84-0.14-2.24-0.42-3.09,0c-1.12,0.42-1.96,1.54-2.52,2.52
		c1.12,0.28,3.65-1.12,2.38-0.56C81.78,321.51,81.78,320.39,81.92,320.39"/>
	<path id="XMLID_223_" class="st0" d="M80.1,311.13c-0.56,0.28-0.84-0.84-2.24,0.14c-1.26,0.84-0.56,1.26-1.12,1.54
		c1.12,0.28,1.96,0,2.67-0.42L80.1,311.13"/>
	<path id="XMLID_224_" class="st0" d="M67.75,301.31c-1.54,1.82-5.89,0.56-6.73,0.98c-1.4,0.7-2.81,2.67-3.23,4.49l1.54-0.28
		c0.42-0.7,1.68-3.09,2.81-2.95c6.31,0.7,6.87-1.82,7.29-3.23L67.75,301.31"/>
	<path id="XMLID_225_" class="st0" d="M80.8,295.14c-0.14,0.98-0.28,1.96-0.42,2.95l0.84-0.42l0.7-0.42
		c0.14-0.98,0.28-1.96,0.42-2.95l-0.84,0.42L80.8,295.14"/>
	<path id="XMLID_226_" class="st0" d="M83.46,303.41c0.42,1.12-0.56,2.38-1.4,2.95l1.54-0.84c0.84-0.7,1.82-1.82,1.4-2.95
		L83.46,303.41"/>
	<path id="XMLID_227_" class="st0" d="M510.32,252.77h-1.68c0,1.12,0,2.38,0,3.51c0,138.03-110.82,250.67-249.13,252.35
		c-1.12,0-2.24,0-3.37,0C118.11,508.77,5.33,397.68,3.51,259.23c0-1.12,0-2.38,0-3.51C3.51,117.69,114.46,5.05,252.63,3.23
		c1.12,0,2.24,0,3.23,0c137.89,0,250.67,110.96,252.63,249.55H510.32H512C510.04,112.5,395.85,0,255.86,0c-1.12,0-2.24,0-3.37,0
		C112.22,1.82,0,116.01,0,255.72c0,1.12,0,2.38,0,3.51C1.96,399.36,116.15,511.86,256,512c1.12,0,2.24,0,3.37,0
		c140.27-1.82,252.49-116.01,252.49-255.72c0-1.12,0-2.38,0-3.51H510.32"/>
	<polyline id="XMLID_228_" class="st0" points="32.26,328.8 32.26,328.8 32.26,328.8 	"/>
	<path id="XMLID_263_" class="st0" d="M510.18,281.67c-2.24,4.63-9.82,8.98-14.45,10.38c-4.21,1.12-8,2.52-12.2,3.23
		c-9.54,1.4-16.69,3.51-24.41,9.26c0.28-0.28-0.7,0-1.26,0.14c1.4-5.61,2.52-11.22,3.37-16.83c3.37-22.44,2.95-45.45-1.12-67.75
		c0-0.14-8.7-39.98-20.06-59.06c-17.53-29.88-36.19-57.37-69.86-78.55c-1.12-0.7,49.52,37.45,74.35,92.44
		c-0.84-0.98-8-6.73-13.89-1.82c-0.84,0.7-3.23,6.03,1.12,8.7l1.12,0.28l0,0c-0.28,1.12-0.14,2.38,0.84,2.95l-0.14,0.14
		c-3.09,4.21-5.75,9.12-7.01,14.17c-0.84,3.09-0.84,6.59,1.68,8.98c2.67,2.38,11.08,3.23,11.08,3.23c0,0.28,3.79,38.15,3.79,53.3
		l-16.83,14.03c-0.56-1.12-0.42-9.12-0.42-12.48c0-19.36-1.54-38.58-6.59-57.37c-1.96-7.57-5.33-15.43-9.26-22.3
		c0,0,6.03,16.97,8.28,25.11c4.91,18.66,6.03,37.73,6.03,56.95c0,3.65,0.42,7.72,0.42,11.22c0,0.7,0.14,1.26,0.84,0.98
		c0.84-0.42,17.53-15.15,17.81-15.15c0.7,2.1,1.4,3.65,3.79,3.93c1.4,0.14,3.37-0.14,4.63-0.42c2.52-0.56,5.47-1.26,8.42,0.84
		c0,0.56-0.14,1.26-0.14,1.82c-2.38-0.98-5.75,1.54-6.59,1.26c3.23,1.82,4.63-0.84,6.45,0.28c-0.14,1.26-0.28,2.38-0.28,3.65
		c-1.12-0.84-2.24-1.82-2.24-1.82s1.12,2.38,2.1,3.37c-0.28,1.4-0.42,2.67-0.56,4.21c-0.28-0.14-3.65-1.68-4.07-3.93l-1.26-0.14
		c-1.12,1.26,2.81,4.63,5.19,5.05c-0.28,2.52-0.56,4.21-0.98,6.31c-2.52,0.7-6.73,1.68-7.57,0.7c0.7-0.28,3.23-2.1,2.67-2.1
		c-1.82,0.28-4.91-1.96-4.91-1.96c0,0.98,0.42,1.96,0.56,2.95c-1.68-0.28-5.61-0.42-6.03-0.42c-0.98,0-2.81,0.7-3.37,1.4
		c-2.52,3.09-11.92,12.48-12.91,12.91c-0.7-0.7-0.42-1.82-0.14-2.52c2.67-7.86-0.84-12.06-0.84-12.06
		c0.28,4.77-1.12,9.26-4.21,19.92c-0.84,3.09,7.72-2.24,10.1-5.05c8.7-9.82,11.08-7.86,11.22-8c-0.98,10.52-3.37,20.9-6.03,31.28
		c-1.26,4.91-2.52,10.1-4.21,14.87c-0.56,1.54-1.12,2.95-1.26,4.63c-0.14,3.93,5.19,2.67,8.28,1.54
		c-11.64,23.29-28.05,44.05-47.97,61.72c-4.63,4.07-9.26,7.86-13.89,11.36c-5.33-2.81,0.42-17.67,1.96-21.46
		c3.79-9.68,8.98-18.94,13.61-28.48c2.24-4.63,4.21-9.54,6.59-14.17c5.75-10.8,5.89-13.61,5.89-13.75c1.68-0.14,3.65-0.84,5.05-1.96
		c-0.28,1.12-6.73,16.41-9.82,23.29c-2.95,6.45-6.03,12.91-9.26,19.36c-2.38,4.77-5.19,9.12-7.72,13.89
		c-3.51,6.31-5.89,13.89-6.87,21.04c0-0.28,1.12,1.54,1.54-0.84c1.54-12.34,9.68-21.88,15.15-32.68
		c6.59-12.76,12.76-26.65,17.11-40.26c0.84-2.52,1.68-5.33,1.82-8.14c0.14-1.26,0.98-1.82,1.82-2.81c1.4-1.68,2.95-3.65,2.67-5.89
		l-1.54,0.84c0.14,1.96-0.98,3.65-2.1,5.19c-0.42,0.7-2.52,2.24-2.38,2.95c0,1.12,0,1.96-0.28,3.09c-0.14,0.14-4.49,2.81-6.31,1.96
		c-0.98-0.56-1.4-1.4-2.24-1.96c-2.81-1.68-7.15-0.42-9.82,1.12c-3.93,2.38-11.22,8-11.92,3.65c1.68,0.42,4.21-1.12,7.15-3.65
		c5.61-4.77,16.83-6.17,16.83-6.17c0.28-0.7,3.37-1.96,3.37-1.96c-3.65-0.42-14.17,2.24-24.41,9.26c3.51-3.23,4.91-5.61,6.31-9.12
		c-0.42,0.28,11.08-6.45,15.43-10.66c2.67-2.52,2.24-0.14,3.93-3.51c5.19-10.38,7.72-25.67,8.98-37.31
		c1.54-15.15,1.68-30.72-0.84-45.73c-2.67-16.55-6.87-33.67-14.45-48.82c0.7-0.28,1.26-0.7,1.96-0.98c0.84-0.56,1.12-2.52-0.28-1.96
		c-10.24,4.21-28.2,5.05-32.4,4.63c-2.52-0.28-5.05-0.42-6.87-2.38c-0.7-0.84-5.47-11.08-5.05-12.91
		c24.55,2.38,34.65-6.03,36.33-10.94c1.12-2.95-7.43-16.97-8.7-18.94l0,0c-11.92-36.33,4.63-37.03,5.19-37.17
		c-1.12,0.14-19.78-2.24-9.12,31.56c-9.26-13.75-19.78-23-19.78-23c1.68,3.09,1.68,2.81,2.38,4.49c-5.05-2.38-16.69-6.17-17.11-6.31
		c-0.7-1.26-1.26-2.52-1.96-3.93c11.78,5.19,14.45,1.4,15.01,1.26c-3.09,0.84-14.45-3.23-17.11-5.75
		c-1.54-3.65-4.63-10.66-4.91-10.52c2.1,6.03,3.51,12.91,6.59,18.52c-0.7-0.14-1.4-0.28-1.96-0.7c-1.4-0.56-5.19-5.05-6.45-5.75
		c-0.84-0.42,0.98,3.09,0.14,2.81c-0.42-0.14-4.91-5.89-5.89-6.17c-0.84-0.42,0.28,3.65-0.56,3.37c-3.37-1.26-11.08-4.07-10.94-8.98
		c0.98-0.28,1.96-3.93,2.67-5.89c2.52-1.4,4.63-7.86,4.77-9.26l-0.7-0.28c0,0-1.68,2.95-2.67,3.65c0.14-1.26,0.14-2.67-0.42-3.51
		c-1.12-1.68-9.26-3.93-10.1-4.21h-1.96c-0.28,0,5.05,1.82,7.43,3.09c4.35,2.1,2.1,8.7,2.1,8.98c-1.12-1.68-2.81-3.23-4.35-4.21
		c-1.12-0.7-2.52-1.82-3.65-2.38c-0.7-0.28-0.84,0.7-0.98,0.56c1.26,0.98,4.21,3.79,4.49,4.07c1.4,1.54,2.81,3.23,3.23,4.77
		c0,0-0.42,2.1-0.84,3.09c-1.12-2.1-2.52-4.07-4.07-5.89c-0.98-1.12-5.19-4.91-11.22-7.43c-6.73-2.67-15.15-11.36-17.25-15.01
		c3.51,5.75,7.57,12.06,13.75,14.87c3.51,1.54,8.56,4.21,8.42,4.35c-1.4,5.05-7.43,8.84-9.54,8.28c2.95,0.84,6.03-0.42,8-1.96
		c1.54-1.26,2.81-2.95,3.93-4.77c3.65,2.95,7.29,9.68,7.29,9.68c-0.42,1.68,1.96,5.05,3.09,6.03c5.05,4.49,12.06,6.73,18.38,8.98
		c4.91,1.68,22.72,7.15,26.37,8.98c0.28,0.42,13.89,17.39,18.66,26.93c1.26,2.52,6.31,15.71,6.03,15.99c-8.56,8-30.3,7.86-30.3,7.86
		s-2.52-5.05-4.07-4.21c0,0-4.07-6.31-4.77-5.33c0,0,4.21,8.14,3.37,16.41c0,0,0.7,4.63,1.68,2.67c0,0,0.14-4.77,2.24-2.1
		c0.7,1.54,2.24,5.05,2.24,5.47c0.42,2.24,4.77,4.63,4.91,4.63c1.4,5.89,3.79,11.64,7.01,16.97c0.98,2.67,7.29,15.29,8.98,19.08
		c1.68,3.79,1.96,8.14,2.67,12.06c1.12,6.59,4.91,41.8,4.91,41.8c-0.14,9.12-1.26,18.52-3.93,27.35
		c-1.26,4.35-6.59,15.71-22.16,19.36c-2.38,0.56-5.05,0.28-7.72,0.42c5.05-3.23,9.26-7.86,10.94-13.89
		c-0.14,0.42-8.98,12.34-16.13,14.03c2.67-2.1,5.61-5.47,9.82-11.36c1.26-1.96,2.38-4.21,3.37-6.31c2.1-3.65,1.12-10.1,0.98-10.38
		c1.26,2.1,2.38,4.49,2.67,6.73c0-0.28,1.12,1.54,1.26-0.28c0.28-3.93-3.09-8.56-5.47-11.5c-2.24-2.67-4.35-5.61-6.73-8.14
		c-4.63-4.77-10.94-8.56-17.67-9.68c-1.12-0.14-7.86-4.63-10.66-5.89c-3.37-1.4-6.87-2.38-10.52-2.81c-0.98-0.14-1.54-0.7-2.38-1.12
		c-5.89-3.65-15.43-0.14-15.43,0c-3.51-2.38-14.87-7.86-14.87-7.86c1.12-4.63,3.37-9.12,5.61-13.33c2.1-4.07,7.86-13.47,8.28-14.17
		c0-0.14-4.35-8.28-5.19-14.03c3.93-0.42,7.86-2.38,11.36-4.91c-0.42,0.28-17.67,8.42-25.67-3.37l-2.1-1.26
		c-0.7-0.56-1.12-1.4-1.54-2.24c-0.28-1.12,0.14-2.38,0.28-3.51c0.14-0.56,2.52-11.64,2.95-14.31c0.98-5.47-3.09-11.22-7.43-14.17
		c-0.14-0.14,4.35,4.49,5.75,10.1c-6.73,0.98-12.62,5.33-18.66,7.72c-7.86,3.09-11.78,5.89-19.22,8.28
		c-4.77,1.54-25.53,6.87-41.38,2.38c-0.28-0.14-5.19,0.42-8.7-2.67c-1.82-1.68-1.96-4.63-1.96-7.01
		c-0.14-3.09,4.91-15.71,7.43-20.62c7.43-15.29,18.1-29.04,29.46-41.8c1.96-2.1,5.75-8.42,6.45-9.54
		c4.49-4.07,12.34-8.14,11.92-7.86c6.17-4.35,9.96-4.91,18.38-6.31c0,0,0.98,4.49,3.37,4.77c8.98,0.7,15.71,3.23,18.1,5.05l0,0
		c2.81,3.23,4.49,15.57,4.63,17.39c0,0.7-1.54,3.37-3.51-0.28c0.42-1.26-0.98-10.52-5.05-15.15c-0.84-0.84-3.37-2.1-6.31-2.81
		c3.23,1.26,5.75,4.21,6.59,5.89c1.4,2.81,3.09,6.17,3.65,11.22c0,0.56-2.52,5.47-5.33-3.93c-0.98-3.23-3.37-7.57-6.87-8.14
		c-1.96-0.28-7.72-2.24-17.81,2.95c3.23-1.68,19.92-6.45,22.3,4.63c-2.81,0.98-5.75,1.12-8.42,1.26c-4.07,0.14-8-0.84-12.2,0
		c-2.95,0.56-6.17,0.56-8.7,5.33c-3.09,5.89-6.17,11.92-8.84,17.96c-0.98,2.1-1.68,3.93-2.38,6.17c-1.12,3.23-6.31,12.48-7.15,14.03
		c-2.38,3.51-4.35,7.43-7.01,10.66l1.4,0.28c3.93-4.77,8.28-12.2,8.28-12.2c5.33-2.52,14.45-8.42,18.24-12.91
		c8.42-10.1,17.81-16.83,29.46-24.83c-0.42,0.28,1.82,1.96,3.93,1.68l1.54-0.84c-0.14,0,5.05,5.19,5.61-1.54
		c0.28-3.79-2.1-12.48-3.09-14.45c0.84,0.84,3.79,3.09,4.63,15.57c0,0,2.81,1.26,3.93,4.91c-0.14-0.28,0.84-3.65-2.1-5.47
		c-1.12-0.7-0.98-1.82-0.98-2.95c0.14-3.37-0.56-6.73-2.24-9.68c-2.81-4.91-7.57-8.14-12.76-9.68c-1.82-0.56-6.73-1.4-9.82-1.54
		c-2.52-0.14-3.23-1.96-3.23-4.35c0-0.98,1.68-1.4,1.4-2.67c-0.28-1.26-1.26-3.09-1.54-4.63H264c0.98,0.14,1.96,0.42,2.95,0.84
		c0.7,0.14,2.1,0.7,2.81,0.56c0.14,0,0.42,0.28,0.7-0.42c0.42-0.7-1.96-1.68-3.09-1.96c-1.12-0.28-2.38-0.28-3.23-1.12
		c-1.12-1.12-0.84-3.51-0.28-4.77l1.96,1.26c2.95,0.98,4.63-1.54,5.05-2.67c-3.37,3.65-6.73,0.28-6.73,0.28
		c-0.14,0-0.84,0.14-1.82,1.26c-3.93,0.98-3.23-3.09-2.81-4.63c1.12-4.07,3.23-7.86,4.49-11.92c0.56-1.82,0.14-4.07,0.28-6.17
		c0.14-5.05,4.49-13.61,5.05-14.45c0.56-0.84,1.54-1.12,1.68-1.12c0.56,0,2.95-0.42,2.67-1.68l-5.47-0.28l-1.54,0.98l0,0
		c0.7,0.14,1.54,0.28,2.38,0.56c-0.98,0.98-4.77,8.56-5.61,10.94c0-2.95,1.4-9.82,1.26-10.52c0-0.84-0.56-1.54-0.7-2.38
		c-0.42-1.4,1.12-2.24,2.24-2.95c6.31-4.21,13.61-6.87,21.04-7.86c20.48-2.81,35.91,4.49,40.4,7.86
		c7.29,5.47,10.94,13.61,11.78,22.3c-1.82,3.93-3.79,9.68-5.47,13.47c-6.17,14.31,2.67,17.53,2.81,17.53
		c-3.79-2.52-2.52-12.48-1.12-17.81c0.98-3.79,2.38-7.72,4.07-11.36c0,0.14-0.7,8.7-0.28,12.91c0.42,5.19,0.14,14.59,15.71,16.69
		c1.96,0.7-0.98-5.75-0.98-5.75c-1.68-4.77-4.77-4.21-4.77-4.21c-4.49-0.84-6.87-2.24-7.72-2.95c-0.42-1.82-0.7-3.65-0.84-5.33
		c1.54-0.42,7.29,2.24,7.29,2.24c5.61,2.52,2.81-3.79,2.81-3.79c0-4.49-3.37-3.37-3.37-3.37c-2.67,0.14-5.61-1.96-6.59-2.81
		c0.14-2.1,0.14-4.21,0.14-6.17c1.26-0.56,4.49,0.98,4.49,0.98c4.07,2.52,2.81-1.96,2.81-1.96c-0.14-2.95-4.21-3.09-4.21-3.09
		c-1.82-0.28-3.09-1.12-3.93-1.96c-0.28-1.4-0.7-2.52-1.26-3.79c3.65,2.1,7.15,1.68,9.26,0.56c0.14,0,4.91-2.52,9.12-12.48
		c0.98-2.38,4.63-9.82,4.77-10.66c0-0.84,3.65-0.42,2.95-2.24c-0.14-0.84-4.35-2.1-4.77-2.52c-2.38-1.26-3.09-0.7-3.23-0.56h0.14
		c-0.7,0.7-0.28,1.54-0.14,2.81c0.28,1.82-4.63,14.03-7.29,18.1c-1.26,1.82-2.52,3.51-4.91,3.09c-2.1-0.42-4.91-2.1-4.21-4.63
		c1.26-3.37,5.89-14.45,6.73-16.83c1.4-3.51,2.81-4.21,2.95-4.21l0,0c2.38-1.54-2.24-2.81-3.23-3.09c-1.82-0.84-3.51-1.54-5.47-2.52
		c-1.4-0.7-2.81,0-2.81,0c-0.84,0.7,0.14,2.24,0.14,3.23c0,0.98-2.81,8.14-3.93,10.94c-1.12,2.95-3.65,9.54-3.79,9.96
		c-1.82-1.54-3.79-2.95-5.89-3.93l0.56-0.56c1.82-2.95,0.84-7.72-1.68-9.96c5.05-1.54,6.73-8.14,3.93-12.34s-8.28-4.49-12.76-5.47
		c-1.82-0.42-3.65-0.84-5.33-1.4c-0.84-0.28-3.37-0.98-3.51-0.14l0,0l0.14,1.4c0.98,2.38,0.84,4.63,0.14,6.87
		c-1.26,4.77-2.52,9.54-3.79,14.31c-7.01-0.84-13.75-0.14-20.2,1.68c-0.28-0.7,0.42-4.49,0.56-5.61c0.14-0.7,0.56-2.38-0.28-2.67
		c-1.4-0.7-4.07,2.81-4.91,3.65c-1.68,1.96-3.65,3.23-6.17,3.93c-1.12,0.42-3.93,1.26-3.93-0.7c0-1.12,0-8.98,0-11.78
		c2.67-0.56,4.77,0,6.17,2.52c0.28,0.56,1.96,0.28,2.38-0.28c0.42-0.84,0.42-5.89,0.14-7.43c-0.14-0.7-2.52,0.56-2.67,0.7
		c-1.54,0.56-4.91,0.84-5.89-0.42c0-2.81,0-5.75,0-8.56c1.12-0.14,2.52,0.14,3.51,0.14c2.1,0.14,4.21,0.98,5.75,2.24
		c1.26,0.98,1.96,2.38,3.37,2.1c0.14,0,1.82-0.56,0.84-3.65c-0.42-1.12-0.7-2.95-1.68-3.79c-0.56-0.56-12.06-0.98-14.45-1.12
		c-2.24-0.14-6.73-0.98-8.56,0.84c-0.7,0.7-0.14,1.4,0.42,1.82c1.12,0.98,1.4,2.67,1.54,4.07c0.28,2.38,0.42,18.38,0.42,19.08
		c0,1.4-1.12,5.33-1.96,8.14c-0.42,1.26,14.45,0.28,17.11-0.14c-2.24,0.98-4.35,2.1-6.45,3.23c-2.1,1.26-5.75,2.67-5.61,6.03
		c0,1.26,0.98,2.24,0.84,3.65c-0.28,1.82-0.98,3.51-1.12,5.33c-0.28,2.67-0.28,5.47,0.14,8.14c-0.28,2.1,0,4.07-0.14,6.31
		c-0.14,1.4-2.95,7.15-3.51,8.84c-0.7,2.24-2.81,5.33-1.12,7.43c1.4,1.96,4.63,1.26,4.63,1.12c0,0-2.52,4.35,0.14,5.75
		c-0.7,1.54-1.12,4.91-0.56,6.31c-3.79,0.7-7.86,1.26-11.36,2.52c-3.51,1.26-6.87,3.51-9.96,5.47c-0.56,0.28-8.28,3.23-14.87,15.15
		c-0.42,0.7-4.21,5.05-5.47,6.45c-12.34,14.59-23.71,30.72-30.44,48.68c-1.68,4.63-4.77,12.76-1.54,17.11
		c-11.5-0.42-23.15-0.84-34.65-1.12c-6.17-0.14-12.34-0.28-18.66-0.14c-3.79,0.14-8.14,1.68-8.14,1.68
		c5.75-0.56,11.64-0.42,17.53-0.42c6.31,0.14,40.68,0.98,42.22,1.26c1.68,0.14,3.23,0.14,3.23,0c2.52,2.38,6.17,1.54,9.4,2.52
		c6.31,1.68,13.33,2.1,19.92,1.68c6.73-0.42,12.2-0.84,16.83-1.26c10.94,0.28,22.44,0.98,31.42-0.56
		c-8.42,0.14-16.83-0.14-25.25-0.28c0.84-0.14,31.84-14.31,36.61-15.29c0,0.98-0.14,1.82-0.42,2.81
		c-0.98,2.81-2.24,10.52-2.38,12.06c0,0.98-0.7,1.96-0.7,2.95c0,2.95,2.95,3.65,4.63,5.47c5.33,5.89,11.08,6.59,13.33,6.59
		c0.14,2.95,4.21,13.33,5.33,14.73c0.14,0.14-9.96,14.59-13.47,26.23c-0.84-0.28-4.63-1.12-4.63-1.68c-0.7-3.37-2.67-6.45-4.77-9.12
		c-1.4-1.82-2.95-3.93-5.33-4.21c-1.68-0.14-3.51-0.28-5.19-0.56c-13.47-1.4-26.79-2.67-40.12-3.93c-5.47-0.56-11.5-1.4-16.97-1.96
		l-1.54,1.26c2.1,2.38,4.21,4.77,6.31,7.29c-3.51,0.14-7.43-0.14-10.94,0l-0.7,0.7h-0.14c1.54,1.26,2.81,2.81,4.21,4.35
		c-5.61,0.84-10.1,1.4-13.19,6.59c-0.28,0.56-2.38,5.33-6.87,9.26c-1.96,1.68-4.63,3.65-4.21,7.15c0.14,1.4,1.54,1.54,3.09,1.4l0,0
		l-0.14,0.14c-0.56,0.56-13.47,11.92-15.99,23.15c-1.68,7.57,2.24,22.72,2.95,25.67c0.7,3.65,3.79,27.77,3.09,37.45
		c-0.14,0.7,1.12,25.67,1.68,30.58c0.28,2.81,1.68,2.81,1.68,2.81c3.09,0.7,6.31,1.26,9.12,2.81c1.26,0.7,2.52,1.54,3.09,2.95
		c0.42,1.26,0,2.67,0.42,3.93c1.54,4.63,9.12,1.96,12.48,1.82c5.61-0.42,11.36,1.4,17.11,1.54c1.12,0,10.1-0.7,11.36,0.42
		c0.56,0.42,0.98,1.12,1.54,1.54c2.95,1.96,6.73-0.7,7.01-0.98c1.4-1.26,5.05-5.89,5.61-6.87c0.14,2.52,3.37,6.45,2.95,7.29
		c-0.14,0.28-7.86,7.43-8.56,10.66c-0.28,1.26-0.56,2.52-0.98,3.79c-21.6-0.98-77.71-2.67-83.88-2.95
		c-3.23-0.14-1.54,1.96-1.54,1.96c21.6,0.98,76.59,1.68,85.15,1.96c0,0.14-1.12,2.81-0.84,5.61c0,0.42-8.14,7.86-9.54,16.97
		c-0.42,3.09,2.1,3.23,2.38,3.23c-0.42,0.28-5.47,3.79-16.41,5.89c-39.7-8.42-75.33-28.48-103.94-56.81
		c-15.15-15.15-27.63-32.54-37.03-51.48c-0.42,0.56-5.61,5.05-11.22,6.59c0-1.82-1.4-3.65,1.54-4.49c2.24-0.56,1.96-4.07,2.24-4.49
		c0.42-0.56,3.51-2.24,4.77-3.09l0,0c0.98-0.7,5.47-5.75,7.01-7.15c1.54-1.4,2.52-3.51,2.81-5.47c0.28-1.68,0.98-2.1,3.51-2.52
		c2.52-0.42,3.65-4.07,3.79-5.61c0.14-1.26-1.12-3.23-1.4-4.49c-0.84-2.81-0.42-6.59,0.7-8.28c1.54-2.38,4.21-4.63,0.14-9.12
		c-1.26-1.4-0.56-4.21-0.56-6.17c0.14-2.81-1.82-7.15-11.64-0.14c-0.7,0.42-1.54-0.7-2.52-0.56c-0.98,0.14-3.37-0.28-5.61,4.63
		c-0.56,1.26-1.82,1.68-3.23,1.26c-0.98-0.42-2.38,0.42-3.37,0.98c-1.12,0.56-2.67,0.84-3.93,0.98c-0.56-1.96-0.98-3.93-1.26-5.89
		c-8.7-43.63-3.37-88.51,16.55-128.35c12.91-25.81,27.91-50.22,50.36-68.59l-1.54,0.84c-34.65,28.48-56.11,68.03-66.35,111.24
		c-7.43,31-7.57,64.39-0.42,95.39l0.14,0.7c1.96-0.84,6.87-5.33,7.43-5.33c7.29,0.42,6.73-2.67,7.86-4.35
		c0.98-1.4,1.96-2.1,3.65-1.82c1.4,0.28,2.24,0.28,3.65-0.28c2.24-0.84,5.05-2.95,7.29-2.67c1.82,0.28,1.12,1.82,0.42,5.05
		c-0.28,1.54-0.28,3.09,1.54,4.07c2.52,1.26,1.68,3.37,0.7,5.47c-0.7,1.4-2.1,2.38-2.67,3.79c-0.84,2.1,0.7,3.79,0.7,7.01
		c0,0.7,1.26,4.21,1.26,4.63c-0.14,1.82-3.37,3.51-6.03,3.37c-0.7-0.14-1.54,1.96-1.54,2.52c-0.14,1.26-0.28,2.67-0.7,4.07
		c-0.84,1.96-3.09,3.51-4.91,4.77c-1.4,0.98-2.1,2.52-2.67,4.21c0.28,0.7-3.23,2.1-5.33,2.24c-3.37,0.28-1.82,4.63-2.1,5.33
		c-0.28,0.42-1.96,1.54-2.52,1.96c-1.54,0.84-2.1,3.51-2.52,5.33c-0.56,0.14-1.4,0.14-2.1,0.28c-0.42-5.05,1.4-10.52,2.95-15.29
		c2.1-6.45,5.05-12.76,8.14-18.8c3.93-7.72,7.72-15.01,12.48-22.3c-0.28,0.42-0.42-0.98-1.68,0.42
		c-4.63,7.15-21.32,36.05-22.02,39.98c-0.14,0.56-1.68,0.7-2.52,0.42c-0.56-1.54-0.84-3.37-0.14-4.91c-0.14,0.42-4.07,2.67-0.7,7.43
		c0,1.82-1.26,6.87,1.4,8.42c0.56,1.54,1.54,5.19-0.98,4.91c-2.24-2.24-3.65-6.17-3.79-8.84c-0.14-1.12,0.98-2.1,0.28-3.65
		c-0.84-1.82-2.24-3.23-1.54-5.19c0.28-0.84,2.67-5.33,0.98-6.87c-3.93-3.65-1.96-7.01-0.28-9.54c0.84-1.26,3.79-1.82,2.81-5.47
		c-0.28-1.26-0.7-1.82-0.98-3.09c-0.98-3.37,1.82-5.47,4.49-7.15c-1.26-1.82-4.77-3.79-6.59-4.77c-6.73-3.09-13.47-4.07-20.48-5.19
		c-8.28-1.26-17.96-4.63-22.86-11.78l0.98,5.05c2.52,3.79,5.19,4.77,9.12,6.87c2.81,1.54,5.33,2.52,8.14,3.09
		c-2.52,1.12-5.19,2.24-4.77,5.75c0,0.28,0.42,4.35,0.28,5.19c-0.14,2.67-0.56,3.93-1.4,6.31c-1.12,2.52,1.26,6.45,2.52,8.7
		c0.14,0.28-0.56,2.67-0.7,3.51c-0.56,5.47,5.89,12.62,9.82,14.73c0.98,2.52,3.09,4.49,5.19,5.89c1.4,0.84,4.07,1.82,3.51,3.65
		c-6.87-2.95-13.33-7.72-19.08-13.19l-0.7,2.95c25.81,29.46,52.6,10.52,54.43,8.84c15.99,30.02,39.7,55.97,68.31,74.91
		c21.74,14.45,45.73,26.23,71.26,31.7c0.56,3.23,2.24,6.59,5.75,7.15c2.1,0.42,3.93-0.56,3.93-0.56c1.54,7.86,14.03-1.82,15.85-3.51
		c-0.42,0.42-13.75,7.57-14.45,3.65c-0.28-1.26,0.84-1.96,1.54-2.38c1.82-1.26,5.61-4.07,5.75-4.07c-5.89,3.09-8.84,5.05-8.84,5.19
		c-2.52,0.28-4.49,0.14-5.75-2.1c-0.7-1.54-0.14-3.65-0.14-3.65c2.52-0.42,5.05-1.12,7.57-1.82c12.34-3.23,27.35-16.13,28.76-21.18
		c13.61-5.33,31.7-7.72,32.54-8.56c-10.1,0.28-24.13,2.67-40.96,10.1c-5.05,2.24-9.68,4.91-8.56,6.87c0.98,1.54,3.37-0.84,3.37-0.84
		c1.54-2.52,10.24-6.17,10.24-6.17c-0.28,0.56-5.05,6.73-11.36,10.8c-0.56,0.28-3.51,3.09-5.33,0.42
		c-2.24-3.37,6.73-14.59,7.72-15.43c1.4-1.26,1.4-1.4,1.54-3.37c0-0.98,1.4-4.35,1.82-5.05c0.98-0.98,1.26-2.81,1.82-4.07
		c1.12-2.67,2.67-5.19,4.63-7.29c2.24-2.52,2.81-4.91,2.38-5.89c-1.12-2.52-3.37-5.47-2.95-8.28c-0.98-1.82-2.81,0.28-3.51,1.26
		c-1.4,1.68-5.47,8-7.72,9.26c-0.84,0.14-1.54-0.7-1.96-1.4c-0.42-0.7,0.7-1.26,0.7-1.82l-7.72,0.14c-1.12,0-5.89,0.84-11.36-0.7
		c-3.65-0.98-7.43-1.12-11.22-1.54c-3.09-0.28-6.17,0-9.12,0.56c-0.84,0.14-4.21,0.42-4.07-5.05c0-1.68-3.23-2.81-4.49-3.37
		c-2.81-1.4-8.14-1.96-7.86-2.1l0,0c-1.4-0.14-1.54-2.52-1.68-3.51c-0.42-2.81-0.98-21.18-0.42-27.35
		c1.12-13.19-1.82-26.23-3.93-39.28c-0.98-5.89-2.81-12.34-2.52-18.38c0.56-20.34,20.9-30.86,21.18-31
		c5.75-0.14,17.81-0.28,17.96-0.28c-2.67,0.84-28.62,9.82-24.69,31.56c1.68,9.54,6.45,18.52,11.64,26.51
		c5.75,8.98,20.9,24.27,20.9,24.27c-8.98-10.24-18.52-25.67-23-33.53c-16.27-28.34-0.42-36.75,3.65-40.12
		c6.73-5.47,19.64-8.28,19.78-8.42c0.84,5.75,9.12,3.93,9.12,3.93c1.54,1.54,25.53,26.65,26.09,26.79
		c14.45,0.42,7.86,0.84,38.15,1.68c2.95,0.14,33.81,0.42,35.77-2.1c1.26-1.68,0.14-6.17-0.7-7.72c-1.54-3.51-3.79-6.73-6.17-9.68
		c-2.24-2.81-4.49-5.47-6.87-8.14c4.77,2.52,8.56,7.86,11.78,11.64l0.14-0.98c-6.59-12.62-15.01-14.17-15.15-14.17l0,0
		c-1.26-1.12-2.38-2.38-3.51-3.51c-1.12-1.12-2.38-2.24-3.65-3.23c6.45-3.09,12.62,0.14,13.75,0.28c3.51,0.28,6.87,1.26,10.1,2.52
		c2.81,1.12,9.96,5.75,11.22,6.17c5.75,1.82,11.64,5.19,16.27,9.68c2.38,2.38,5.19,4.63,7.29,7.15c3.79,6.45,2.95,14.59-1.96,20.76
		c-1.68,2.1-9.96,14.59-21.88,13.05c-4.07,0.14-8.28,0.14-12.48,0.14c-13.47-0.14-52.6-2.95-58.49-4.35
		c-5.75-1.4-10.38-3.93-14.03-8.42c-3.79-4.63-8.42-8.42-12.06-13.05c-5.19-6.45-12.2-11.92-12.48-12.2c0,0,8.98,10.94,11.36,13.75
		c3.51,3.93,11.64,15.29,16.69,18.8v1.68c-0.42-0.56-12.62-3.93-22.3-18.1c-0.56-0.7-1.54-0.7-0.84,0.7l4.07,5.89l-6.73-4.49
		c0,0-5.75-1.96-5.47,1.96c0.42,3.79,16.69,7.72,22.72,11.92c-1.12,0.14-14.87-4.77-21.46-1.68c-4.63,2.1-23.57-0.56-23.71-0.42
		c15.15,5.89,22.72,2.81,34.09,2.38c3.23-0.14,5.89,1.26,8.98,1.68c0.84,0.14,3.09,0,3.93-0.84c0.56,0.42,2.24,1.4,3.09,1.68
		l-0.14,0.14h0.14h-0.14c6.45,7.72,11.08,17.81,9.54,28.05c-1.4,8.84-10.24,14.45-18.8,15.71c0,0,11.92,2.24,18.1-6.45
		c6.73-9.4,1.54-24.41,1.54-24.55c5.61,5.61,8.14,13.61,6.87,21.6c-0.84,5.33-2.24,10.94-4.49,15.99c-0.42,1.12-1.12,2.1-1.82,3.23
		l-0.98,1.26c0.14-0.14,7.72-4.49,9.54-21.6c0.14,0.84,0.28,1.82,0.28,2.67c0.7,7.15-0.14,18.38,2.67,22.44c0,0-1.4-11.08,0.14-19.5
		c1.54,1.54,9.54,9.54,9.96,10.38c1.54,3.23-7.01,13.47-7.01,15.99c0,1.54,1.68,11.36,2.24,14.59c1.12,6.31,2.52,12.48,5.05,18.52
		c2.1,5.19,6.17,9.4,7.43,14.87c1.12,5.05-0.84,10.38-5.33,13.33c-0.56,0.42-20.48,11.36-21.32,12.2
		c-5.05,4.21-14.31,5.47-14.45,5.47c0,0-4.07,2.95-6.59,2.52c-3.93-0.56,0.56-4.21,1.96-5.47h-0.14c0,0-6.73,4.77-9.68,4.21
		c-2.52-0.42-2.24-1.96-0.7-3.09c2.38-1.68,5.19-4.07,5.19-4.07c-0.28,0.14-7.29,4.49-8.98,4.91c-3.65,0.98-4.35-1.68-4.35-1.68
		c-0.42,0.42-0.28,4.35,4.77,3.09c1.26,3.09,5.33,2.67,8.42,0.7c-0.56,6.73,10.94,0.84,11.36,0.56c8.14-0.7,13.05-5.05,14.87-6.73
		l16.41-2.24c1.4,1.96,4.35,0.84,5.33,0.56c0.14,2.24,2.95,3.23,4.77,3.79c7.01,2.24,13.61-4.91,16.69-9.96l0.56-0.84
		c37.03-10.38,71.68-32.54,97.49-60.6c22.58-24.69,39-55.13,47.41-87.39c1.54-0.98,2.95-1.96,4.07-2.67
		c-0.7,1.12-0.56,2.1-1.68,4.49c-0.98,2.1,0.98,0.42,0.98,0.42c2.52-3.23,12.91-11.08,13.89-11.5c-1.12,2.81,0.84,8.56,0.42,12.48
		c-0.42,4.91-2.1,9.26-3.65,14.03c0,0,0.14,0.28-5.19,13.75c-1.4,3.65,3.23,8.56,3.51,8.7c0.28,0.14,0.56-5.33,2.67-7.01
		c0,0-0.56-1.4-0.14-3.09c0.28-1.26,12.48-29.18,19.22-39.42c3.65-4.21,6.17-5.19,9.82-6.73c2.24,13.47-2.52,26.65-8.84,38.44
		c-1.68,2.95-4.63,5.33-6.59,8l-1.68-0.28c0-1.26,1.12-2.52,2.1-3.37c-0.42,0.42-2.67,0.84-3.51,3.37H481
		c0.98-2.38,2.95-8.7,5.19-11.64c2.52-3.51,4.77-6.87,6.59-10.8c2.1-5.05,4.07-11.5,5.75-16.69c-0.14,0.28-0.7-1.12-1.68,0.98
		c-2.52,5.33-7.86,10.94-9.12,17.25c0.14-0.42,0.98,1.4,1.54-0.84c0.98-4.21,1.68-3.23,2.52-2.67c-0.28,0.7-0.7,1.54-0.98,2.24
		c-0.84,1.96-2.38,5.47-3.51,7.15c-1.4,1.82-5.47,7.72-6.59,9.54c-1.12,1.54-1.68,3.37-2.52,5.05c-2.1,3.93-6.73,7.29-6.87,11.5
		c0,0,0.84,0.14,1.54-0.84c2.52-3.93,4.77-7.15,7.86-9.26l0,0c1.96,0,3.79,0.42,5.47,1.4c0,0,2.38,2.38-2.95,8.28
		c-1.82-0.14-3.65-0.42-5.47-0.7c-3.93-0.7-3.37,1.54-3.37,1.54c7.29,1.4,15.85,1.82,20.76-4.35l-0.42-1.4
		c-2.24,2.81-5.19,4.63-8.42,4.77c0.98-1.54,2.67-3.51,3.23-5.19c0.42-1.26-0.7-2.38,0-3.51c0.84-1.54,3.23-6.17,4.91-9.26
		c6.45-11.78,10.24-26.09,8.14-39.42c2.95-1.4,5.61-3.37,7.01-6.45L510.18,281.67L510.18,281.67z M431.62,206.2l1.96-1.4l1.54,1.26
		c0.98,3.79,2.52,2.38,3.37,3.51c-3.09-0.14-13.05-0.84-10.8-10.94c1.12-4.77,6.31-13.05,6.31-13.05c1.4,0.28,2.67-0.42,4.07-0.56
		c1.54-0.14,3.51-0.28,4.63,0.98c0,0.14-0.7-3.23-6.73-1.68c-0.56,0.14-2.67,0.7-1.96-1.96c0.84-0.14,1.96,0,2.52-1.12
		c1.82-3.51,4.77-1.26,4.77-1.4c-0.98-2.1-2.24-2.52-3.79-1.68c-1.4,0.84-1.54,2.52-3.37,2.67c-3.23,0.28-4.63-3.51-2.52-6.73
		c2.1-3.37,8-1.4,9.82-0.14c1.54,0.98,2.95,2.1,4.21,3.37c2.95,5.89,10.1,29.32,12.2,41.38l-1.4,0.42
		c-2.38-8.84-9.12-16.83-17.81-19.92c4.91,2.38,14.87,12.06,16.41,20.48c-0.84-1.96-15.01-21.74-23.85-16.41
		C428.82,204.66,431.62,206.2,431.62,206.2L431.62,206.2z M453.08,267.78c-1.54,0.28-8.42,2.38-8.84-3.37
		c0.14-15.15-3.65-54.85-4.63-59.34c1.4,0.84,2.81,1.96,3.93,2.95c2.38,2.1,4.91,4.21,7.01,7.15c0.56,6.73,2.1,16.55,2.52,23.29
		C453.51,245.76,454.77,256.14,453.08,267.78L453.08,267.78z M456.03,267.36c1.26-9.54-1.68-43.77-1.68-43.48
		c0,0,2.52-1.4,4.35,0.14c2.1,14.31,2.67,28.9,1.68,43.48C458.98,267.22,457.43,267.22,456.03,267.36L456.03,267.36z M436.95,297.66
		l1.54-0.84L436.95,297.66z M277.18,132.42c-11.92,5.75-22.02,16.83-30.44,26.79c-3.37,4.07-8.56,6.03-13.61,8.14
		c0.42-0.84,15.01-32.54,16.27-33.95c0.14-0.14,3.51-1.96,6.45-1.96c3.93,0,7.86,0,11.64-0.14c2.52-0.14,6.17-0.98,9.4-0.14l0,0
		l0.42,1.12L277.18,132.42L277.18,132.42z M352.79,96.93c0,0,2.1,5.33-3.23,2.1c0,0-2.95,0.84-4.49-5.75
		C345.07,93.28,351.81,94.12,352.79,96.93z M342.69,79.96c0.7-0.14,4.49,1.54,4.49,1.54c3.65,0.42,2.67,2.38,2.67,2.38
		c-1.12,1.26-5.89-1.12-5.89-1.12C340.44,81.92,342.69,79.96,342.69,79.96z M349,30.44L349,30.44L349,30.44L349,30.44L349,30.44z
		 M348.44,30.72l0.28-0.14L348.16,31L348.44,30.72z M313.51,27.21c0.42-1.96,0.84-3.93,1.12-5.89l-0.14,0.14l0.14-0.14l0.42-0.84
		c1.68-0.28,4.63,0.98,5.33,2.38c1.4,2.95-0.14,7.57-3.51,8c-1.26,0.14-3.09-0.14-3.65-1.26L313.51,27.21z M311.69,34.09
		L311.69,34.09l0.42-0.84c1.54-0.28,3.93,0.7,5.05,1.26c1.96,1.26,0.7,4.63-0.14,6.59c-2.1-0.7-4.07-1.26-6.17-1.82
		C310.71,38.29,311.69,34.65,311.69,34.09L311.69,34.09z M279.57,32.96c-0.42,0.56-0.98,1.12-1.4,1.68
		C278.58,34.09,279.15,33.53,279.57,32.96z M43.06,302.85c0.98,0.28,1.96,0.7,2.95,1.26c1.54,0.7,3.65,1.12,4.91,2.24
		c-0.28,0-7.43-1.4-3.23,10.24l0.14,0.98C46.15,314.77,41.52,305.52,43.06,302.85L43.06,302.85z M31.42,305.24
		c0.14-1.68,0.56-3.23,1.54-4.35c0.56,0,5.47,0.84,7.43,1.26c0.14,2.24,1.12,8.98,7.29,15.85c-0.28,1.96-2.81,3.51-3.51,5.47
		c-0.98,3.23-3.37,7.43-3.09,10.52c-1.12-0.84-2.38-1.68-3.37-2.38l-0.56-0.42l0.14-0.14c-0.98-3.93,4.49-6.59,4.91-11.5
		c-0.42-0.14-0.7,0-1.54,0.84c-1.96,2.38-4.77,6.03-5.05,9.4c-1.4-1.26-2.81-2.67-3.51-4.49c-0.14-1.68-0.42-3.65-0.56-5.61
		c0.84-2.38,3.23-4.49,4.91-6.03c-0.56,0.42-3.37,0.7-5.19,2.95c-0.14-0.7,0-1.26-0.14-1.82C31.14,311.55,31.14,308.32,31.42,305.24
		L31.42,305.24z M26.51,333.71c-2.1-1.26-2.81-5.19-2.67-5.47c0.28-0.84,0.28-1.82,0.28-2.67c0-1.54-0.84-5.19-1.26-5.61
		c-0.7-0.84-0.7-2.1-0.56-3.23c0.14-1.4,0.28-2.24,0.98-3.37c1.12-2.1,0.84-7.43,0.84-7.43c-0.7-0.84-1.54,0.7-1.54,0.84
		c0,0,0.14,4.91-0.84,7.29c-0.56,1.12-1.12,1.82-1.26,3.23c-0.28,1.68,0.98,3.09,1.26,4.49c0.7,3.51-0.14,6.31-0.28,7.01
		c0,0.42,3.65,8.42,4.77,10.8l0,0l0.14,1.68c-9.96-8.84-6.45-15.43-6.87-15.99c-0.56-0.84-0.98-2.67-1.26-3.65
		c-0.84-2.67-0.56-5.47,0.14-8.14c0.7-1.96,1.4-4.21,0.98-6.17c-1.4-5.61,2.95-6.45,5.19-7.43c0.56,0.14,4.35,0.42,5.61,0.56
		c-0.7,1.68-0.14,3.79-0.42,5.61c-0.42,3.23-1.54,16.83,0.42,21.74C28.62,328.52,26.09,331.05,26.51,333.71L26.51,333.71z
		 M41.24,354.89c-0.28-5.05-8.14-6.87-8.42-7.15c-1.26-0.98-2.38-2.24-3.23-3.51c-1.68-2.67-1.12-5.61-1.54-8.56
		c-0.7-5.33,4.07-6.87,4.21-6.87l0,0h0.14c1.68,1.54,1.96,2.24,3.79,3.65c1.54,1.12,3.51,2.67,5.47,3.51
		c0.7,1.4,1.12,1.26,1.26,3.79c0.14,2.67-1.12,5.47-0.98,8c0.28,2.67,1.4,6.17,3.65,8.14C44.05,355.59,42.78,355.31,41.24,354.89
		L41.24,354.89z M245.62,399.08L245.62,399.08L245.62,399.08L245.62,399.08L245.62,399.08z M177.17,394.45L177.17,394.45
		L177.17,394.45L177.17,394.45z M191.61,274.1L191.61,274.1L191.61,274.1z M323.33,296.12c3.23,6.87,0.84,6.73,0.28,7.29
		c-0.56,0.56-6.17,0.84-6.17,0.84c-6.17-0.14-12.06,0.28-18.24,0.14c-13.19-0.28-42.64-1.12-44.19-1.12c-0.56,0-0.98,0.14-1.26-0.28
		c-3.65-3.79-7.29-7.57-10.94-11.22c-4.49-4.49-8.84-9.12-13.19-13.61c-0.56-0.7-1.26-1.82-2.24-1.54
		c-7.72,1.96-8.14-4.63-8.28-4.63c-10.24,0.14-18.24-0.84-29.74,0.28c-1.68,0.14-4.21,1.4-5.89,1.26c-2.95-0.42,0-3.51,1.26-4.63
		c2.52-2.38,6.03-5.19,7.15-8.56c0.56-1.82,2.38-3.51,3.65-4.63c0,0,3.23,1.82,4.91,2.1c2.38,0.42,15.15,7.15,18.38,9.4
		c0.28,0.14-12.06-9.26-16.69-10.24c-1.96-0.42-3.79-0.98-5.19-2.38c2.67-1.96,9.12-2.24,8.98-2.38c0.28,0.42,9.4,7.43,12.06,11.08
		c0.14,0-5.89-7.57-9.12-10.66c-2.24-2.1-4.63-4.07-7.01-6.03c3.37,0,6.59,0.28,9.96,0.14c0.28,0,5.61,5.75,7.72,8.98
		c1.82,2.67,4.35,6.31,4.35,9.68c0,0.42-1.54,2.67-1.4,4.35c0.14,2.81,2.24,2.81,2.95,4.91l1.54-0.84c-0.7-2.1-2.95-2.1-2.95-4.63
		c0-1.68,1.26-2.95,1.4-4.49c0.56-3.23-2.67-7.29-4.21-9.82c-3.51-5.61-7.72-10.8-12.06-15.85c19.92,1.96,39.7,4.21,59.62,5.89
		c4.35,0.28,9.4,11.22,9.68,13.05c-10.52-2.38-21.6-3.09-32.26-2.95c-4.07,0-10.52-0.42-14.59,0.42c-4.63,0.98-5.05,6.59-4.91,6.31
		c0,0,1.4-5.33,9.96-5.33c4.77,0.14,12.34,0,16.69,0.28c16.69,0.7,34.51,2.24,47.83,12.76
		C306.36,273.11,321.37,291.77,323.33,296.12L323.33,296.12z M244.22,468.37l-1.12,0.7L244.22,468.37z M262.31,466.83
		c1.26-0.7,2.38-1.68,3.51-2.52C264.7,465.43,263.57,466.27,262.31,466.83z M387.02,347.04c2.67-1.54,6.59-4.91,6.03-4.63
		c5.75-3.37,9.12,0.14,9.4,0.42c-0.14,0-1.68,1.82-2.38,2.67c-0.28,0.28-5.19,6.59-12.76,10.66c-4.63,2.52-23.57-3.93-16.83-13.75
		c0.98-0.84,2.24-0.84,2.67-0.98c-0.7,1.12-0.7,1.68-0.98,2.95c-0.7,2.67,1.96,4.07,3.93,3.37
		C377.2,348.16,382.67,349.98,387.02,347.04L387.02,347.04z M393.89,291.21c-0.7-7.15-0.84-14.31-1.4-21.46
		c-0.56-7.15-1.4-14.31-2.38-21.46c-0.42-3.09-0.42-6.17-0.7-9.4c-0.28-3.37-1.54-13.33-2.67-15.85c1.4,1.4,4.91,3.93,5.05,4.07
		c-3.23-3.23-13.05-14.17-16.55-21.18c-2.81-4.91-5.19-9.96-6.59-15.15c11.36,1.96,26.51-0.28,32.4-2.67
		c8,16.27,12.34,34.51,15.01,52.32c1.26,8.14,1.26,16.41,1.26,24.55c-0.14,9.68-1.4,19.92-3.09,29.46
		c-1.54,8.42-3.79,16.83-8.14,24.27c-1.12,1.96-2.1,2.67-3.79,4.07c-3.79,3.09-7.57,4.49-12.2,8.28l-2.1,0.42
		c-1.68,0.98-2.52,4.49-3.51,6.17c-1.82,3.23-6.59,7.29-7.86,8.14c-1.54,0.98-3.37,0.98-3.23-2.52
		c0.14-1.26,12.76-20.06,14.03-21.88c1.12-1.54,2.24-3.23,3.79-4.07c0.7-0.42,1.68-0.84,2.1-1.68
		C395.15,312.53,394.31,294.86,393.89,291.21z M389.96,318.42l0.98-0.56L389.96,318.42z M261.47,324.73
		c-0.84,0.7-1.82,1.12-2.81,1.12C259.65,325.72,260.63,325.3,261.47,324.73z M270.73,462.76l-0.7,0.42L270.73,462.76L270.73,462.76
		L270.73,462.76L270.73,462.76z M313.93,445.93c-0.56,4.91-6.03,11.78-6.87,12.76c-5.75,7.01-13.75,6.87-14.59,4.07
		c-0.56-1.68,3.93-5.33,5.19-7.01c2.24-3.51,1.82-7.57,1.82-7.57c-0.28,3.09-3.09,6.31-5.05,8.56c-1.82,2.1-3.65,4.49-4.63,4.91
		c-0.98,0.7-2.52,0.7-3.37-0.42c-1.26-2.38,0.42-3.09,0-2.81c6.31-2.95,8-6.17,8.14-9.54c0,0.42-2.38,6.17-7.57,8.14
		c-1.4,0.56-1.82,0.84-2.38,1.96c-4.49-2.38-0.7-3.93,4.49-7.01c0.14-0.14,2.38-1.82,4.07-3.65c3.93-4.21,2.95-10.24,1.12-15.15
		c-0.98-2.67-2.1-5.33-2.95-8.28c-2.38-7.72-4.35-16.27-8.7-23.29c-0.84-1.54-1.82-3.09-1.96-4.91c-0.14-1.54-0.28-6.73,0.42-7.72
		c0.7-1.26,4.77-7.57,6.73-9.12l0,0c3.79,7.01,16.41,7.57,19.36,8.42c8.98,2.81,9.68,10.66,9.54,13.47
		c-0.14,3.09-1.68,6.03-2.52,8.98c-1.82,6.17-5.19,12.06-4.77,18.66C309.87,433.17,314.35,442.7,313.93,445.93L313.93,445.93z
		 M316.04,452.1c-0.98,0.28-1.12-0.42-1.12-0.98c5.33-7.29-1.4-19.92-1.26-21.46c0.14-3.37,2.38-16.69,3.23-20.06
		c0.98-4.35,3.09-8.14,2.24-12.62c-0.84-4.49-4.91-7.86-8.84-9.82c-2.1-0.98-16.13-2.1-20.62-9.54c0-0.14,1.26-0.98-5.89-8.28
		c-2.95-2.95-5.89-6.03-8.84-9.12c-2.52-16.83-13.75-26.65-13.75-26.65l0,0l0,0l0,0c-1.26-2.67-2.67-5.05-4.49-7.43
		c1.82,0.14,3.79-0.42,5.19-1.54c2.52,0.84,5.33,1.26,7.86,1.68c6.87,0.98,13.61,1.82,20.48,2.67c7.29,0.84,14.45,1.54,21.74,2.1
		c7.15,0.56,14.45,0.42,21.6,0.7c6.73,0.14,13.47,0.14,20.34-0.28c5.47-0.42,11.36-0.42,16.55-2.1
		c11.36-3.79,18.24-19.22,20.06-18.1c1.26,0.84,0.28,4.77-0.98,5.47c-0.56,0.56-5.05,5.47-15.85,23.71c-0.14,0-6.17,0.7-6.31,7.15
		c-0.14,8.56,16.13,13.75,19.5,12.34c0,0,5.89-2.1,13.75-9.54c-1.68,2.95-3.37,6.03-4.49,9.12c-1.68,4.77-15.15,31.56-19.5,42.22
		c-2.1-4.21-5.05-7.86-8.98-10.38c-2.1-1.26-4.35-1.96-6.73-2.67c-2.52-0.84-6.87-1.96-8.14-4.63c-0.14-0.28-0.28-26.65-1.12-35.35
		c-0.28-2.95-1.96-8.56-3.93-10.94c-0.14-0.28,3.79,11.78,1.96,19.5c-0.7,2.67,0.7,12.91,1.12,21.6c-3.23-2.24-7.29-3.93-11.08-5.05
		c-3.79-1.12-3.93-6.87-3.93-9.96c0-3.23,0.56-6.45,0.84-9.68c0.42-5.33-0.14-11.08-1.54-16.27c0,0.14,0.42,11.78,0,17.11
		c-0.14,3.23-0.84,6.45-0.84,9.68c0,3.37,0.28,8.56,4.07,10.1c3.93,1.54,9.26,3.51,12.62,6.17c0,1.26,0.28,2.38,0.14,3.65
		c-0.28,3.65,11.64,6.87,13.89,7.86c4.91,2.38,8.7,6.45,10.94,11.36c0,0-5.75,14.17-0.7,19.08
		C357.42,435.69,338.48,445.37,316.04,452.1L316.04,452.1z M438.92,345.78c-2.81,1.54-6.17,3.09-6.59,0
		c-0.14-1.4,4.49-14.31,5.89-19.5c3.09-11.64,7.57-35.49,8.14-35.35c0.7,0.14,3.37,1.26,5.19,0.98
		C450.56,303.97,442.99,337.36,438.92,345.78L438.92,345.78z M453.37,310.71c-3.09,11.78-5.75,14.73-5.47,13.33
		c2.52-11.92,6.03-18.1,7.01-30.3c0.98-0.28,1.68-0.56,2.1-0.7C456.03,300.05,455.05,304.11,453.37,310.71z M468.52,344.51
		c-3.51-3.93,2.24-14.17,2.38-14.31c0.14,0.14,1.68-0.42,2.38-0.7l0.28-0.14h0.28C468.09,337.22,468.66,343.53,468.52,344.51
		L468.52,344.51z M484.65,305.8c-0.98,3.09-2.38,4.21-4.63,8.84c-0.28-0.28-0.42-0.84-0.42-1.54c-0.28-4.21,2.81-11.36,3.79-13.05
		c0,0-3.93,1.26-9.26,28.05l-2.67,0.7c0.56-1.26,0.98-2.52,1.4-3.93c1.68-4.77,2.81-9.54,3.37-14.59
		c1.12-11.64,8.84-14.73,9.4-14.45C486.33,298.64,485.49,303.27,484.65,305.8"/>
</g>
</svg>
